<?xml version="1.0" encoding="UTF-8"?>
<svg version="1.1" xmlns="http://www.w3.org/2000/svg" width="550" height="800">
<path d="M0 0 C2.80921508 0.60740829 5.07765872 1.45308787 7.58203125 2.85546875 C8.61166992 3.41911133 8.61166992 3.41911133 9.66210938 3.99414062 C11.05456875 4.76688602 12.44531395 5.54273179 13.83398438 6.32226562 C27.4215569 13.73480519 41.15221429 17.49294011 56.1875 20.625 C83.25821309 26.33990052 83.25821309 26.33990052 94.0625 31.75 C95.06539062 32.24757812 96.06828125 32.74515625 97.1015625 33.2578125 C100.13885113 35.08346038 102.3584886 37.20870225 104.9375 39.625 C108.78626688 42.58860652 111.26521421 43.23386677 115.97265625 42.65234375 C120.58758571 41.83376578 125.12561184 40.72770525 129.66552734 39.56884766 C134.08712477 38.49142431 138.46606616 38.15747382 143 38 C144.16917969 37.9484375 145.33835937 37.896875 146.54296875 37.84375 C178.10321691 37.09602448 209.95050325 48.48719395 234 69 C234.77085937 69.78246094 235.54171875 70.56492187 236.3359375 71.37109375 C237.07070313 72.11488281 237.80546875 72.85867187 238.5625 73.625 C239.46162109 74.63433594 239.46162109 74.63433594 240.37890625 75.6640625 C244.07789042 77.54938677 246.91669225 76.86252087 250.96508789 76.35449219 C302.15885017 70.37481695 361.35723785 89.06774358 404.22265625 116.5078125 C406.20002975 118.16793707 407.01998511 119.63374643 408 122 C407.43152344 122.556875 406.86304688 123.11375 406.27734375 123.6875 C395.49785287 134.34102021 385.83732761 145.52287362 378.5625 158.875 C370.39823059 173.8167509 360.0776269 186.03794848 348 198 C347.29101562 198.70640625 346.58203125 199.4128125 345.8515625 200.140625 C328.96152701 216.14171126 306.37378839 224.96336664 284 230 C283.76216797 231.68802734 283.76216797 231.68802734 283.51953125 233.41015625 C280.30611723 255.045563 272.8207399 273.02452599 259 290 C258.3915625 290.75023437 257.783125 291.50046875 257.15625 292.2734375 C253.16013432 297.01428383 248.829157 301.11818958 244 305 C243.26644287 305.60134766 243.26644287 305.60134766 242.51806641 306.21484375 C220.44886859 324.1091467 195.43368647 330.42222339 168 335 C166.64577599 335.23013159 165.29160271 335.46056201 163.9375 335.69140625 C161.29308961 336.13733866 158.64790889 336.57544077 156 337 C157.83645295 338.37809359 159.69508218 339.72666615 161.5625 341.0625 C163.11130859 342.19365234 163.11130859 342.19365234 164.69140625 343.34765625 C168.8304718 345.41474566 170.50813044 344.88539431 175 344 C200.75823025 342.91761441 224.53838352 347.25857794 247 360 C248.00546875 360.56589844 249.0109375 361.13179688 250.046875 361.71484375 C261.33755908 368.49244365 270.03649096 377.61425695 278 388 C278.5775 388.72445313 279.155 389.44890625 279.75 390.1953125 C281 392 281 392 281 394 C281.66 394 282.32 394 283 394 C282.96519531 393.28199219 282.93039062 392.56398438 282.89453125 391.82421875 C282.51857299 377.44829083 283.82944766 358.25582851 292 346 C292.66 346 293.32 346 294 346 C294.3403125 345.195625 294.3403125 345.195625 294.6875 344.375 C299.44193129 335.77174338 306.3529524 331.91545768 315.5625 329.0625 C335.63640043 324.60446374 357.27297836 335.7245954 373.78466797 346.12402344 C376.98972944 348.25678518 379.99977619 350.59172591 383 353 C383.81597656 353.57234375 384.63195312 354.1446875 385.47265625 354.734375 C387.66635347 356.37494445 389.39357376 357.7811532 391 360 C391.55203222 363.89290252 390.46351998 367.43313186 389.36328125 371.15234375 C388.4299781 375.28127691 388.57998816 377.26616441 390.73046875 381.0234375 C394.04062923 385.51461001 397.4778673 389.63963934 401.625 393.375 C404 396 404 396 403.94921875 398.578125 C402.9058082 402.33955564 401.32746828 405.39059654 399.50634766 408.82446289 C395.68025275 416.22379897 392.97715504 421.79705773 395.125 430.0625 C395.78092728 432.04551855 396.48617628 433.99593964 397.23876953 435.94433594 C398.59966764 439.61937189 399.56703582 443.4002219 400.5625 447.1875 C400.77374512 447.97415039 400.98499023 448.76080078 401.20263672 449.57128906 C412.96674196 494.82065585 407.59692117 546.82546324 384.87890625 587.89453125 C375.1702882 603.94099975 359.86513026 616.17655819 341.61328125 620.87109375 C314.00659283 627.10871308 282.94695481 624.79095437 257 613 C257.38671875 613.96292969 257.7734375 614.92585937 258.171875 615.91796875 C269.92664231 646.95282225 269.54151882 682.67113928 264 715 C263.79503906 716.216875 263.59007812 717.43375 263.37890625 718.6875 C260.49649908 732.43711928 253.44672134 742.32924718 241.9453125 750.05078125 C224.17572536 760.94645189 202.21929729 767.38330145 181.5625 762.5 C162.80205851 756.94207295 149.08407928 745.71005723 139 729 C137.29086209 725.72492222 136.05849757 722.53222394 135 719 C134.67386719 718.18015625 134.34773437 717.3603125 134.01171875 716.515625 C133.10960252 713.76224657 132.68711914 711.88847979 133 709 C134.93039722 706.24164686 137.13757457 704.05246527 139.5390625 701.6953125 C151.81354091 688.25183615 152.72277337 667.32406628 152.18359375 650.13232422 C151.29827369 635.02772792 147.64637484 620.02290536 144.72705078 605.21289062 C142.66065184 594.58384093 140.81673324 583.86272086 141 573 C140.2265625 573.20496094 139.453125 573.40992188 138.65625 573.62109375 C137.6146875 573.89050781 136.573125 574.15992188 135.5 574.4375 C133.96859375 574.83775391 133.96859375 574.83775391 132.40625 575.24609375 C113.71454234 579.38313455 94.25255139 577.01443719 76 572 C76.04125 573.010625 76.0825 574.02125 76.125 575.0625 C76.134348 580.3534677 75.31269235 585.50657804 74.53515625 590.73046875 C72.87709505 603.16972714 72.72615914 615.65959194 72.6875 628.1875 C72.68355225 629.12232208 72.67960449 630.05714417 72.67553711 631.02029419 C72.64716803 645.52290555 73.53404841 659.68185812 75.5769043 674.0378418 C77.6726798 688.81469276 79.30102645 708.09857621 70 721 C63.89811608 729.06084015 56.49700539 734.69922548 48 740 C47.42556152 740.36399902 46.85112305 740.72799805 46.25927734 741.10302734 C36.32909678 747.33193356 25.85323091 752.08821301 14 753 C13.37609375 753.0515625 12.7521875 753.103125 12.109375 753.15625 C-1.70155789 753.77006924 -17.3332131 749.50527381 -28.13671875 740.71484375 C-39.99719692 729.79922548 -46.1837093 718.85271271 -48 703 C-48.12632813 701.91332031 -48.25265625 700.82664062 -48.3828125 699.70703125 C-48.55228946 696.9769784 -48.58505197 694.67109794 -48 692 C-45.4375 689.5 -45.4375 689.5 -43.78125 688.3984375 C-28.5942328 676.4752968 -26.16472702 646.06988908 -23.17651367 628.48461914 C-19.81723128 608.73631293 -14.65833558 591.05129566 -6 573 C-5.59120605 572.12553223 -5.18241211 571.25106445 -4.76123047 570.35009766 C2.50894053 554.82670806 10.50804499 539.9568491 23 528 C21.16631417 523.37874128 19.27047535 518.78364247 17.375 514.1875 C17.05015625 513.39923828 16.7253125 512.61097656 16.390625 511.79882812 C15.59397935 509.86579088 14.79702101 507.93288251 14 506 C13.45730469 506.48597656 12.91460937 506.97195313 12.35546875 507.47265625 C7.99129121 510.30249608 3.01038749 509.56303597 -2 509 C-5.2856266 508.0798166 -8.06115055 506.71925379 -11 505 C-11.71542969 504.5875 -12.43085937 504.175 -13.16796875 503.75 C-32.62350908 491.6290262 -45.59901728 471.93299 -51.33984375 449.9140625 C-54.09571325 433.57452856 -53.05944732 413.39221922 -44 399 C-42.25008227 396.87124441 -40.322438 395.06147376 -38.25 393.25 C-37.68925781 392.74758789 -37.12851563 392.24517578 -36.55078125 391.72753906 C-25.88731148 382.34158563 -14.348245 374.01897165 -2 367 C-0.7315625 366.27079346 -0.7315625 366.27079346 0.5625 365.52685547 C20.07197292 354.38193507 39.21465136 346.57654549 61.0234375 341.2265625 C61.88163086 341.01290039 62.73982422 340.79923828 63.62402344 340.57910156 C65.69336544 340.07473666 67.77186682 339.60824851 69.8515625 339.1484375 C73.56494713 337.79392747 75.43148656 335.95768214 78 333 C77.030625 332.55011719 76.06125 332.10023438 75.0625 331.63671875 C37.5006889 313.78551416 5.51018614 281.92688904 -8.55224609 242.44726562 C-9.39462771 239.97261632 -10.20506457 237.49027683 -11 235 C-11.25974609 234.19884766 -11.51949219 233.39769531 -11.78710938 232.57226562 C-15.31716528 221.2742718 -16.44754571 210.45602888 -16.5 198.625 C-16.50636475 197.38250488 -16.51272949 196.14000977 -16.51928711 194.85986328 C-16.38869625 185.63270407 -14.93021311 180.17951105 -9.3125 172.75 C-8.61769531 171.82058594 -7.92289063 170.89117187 -7.20703125 169.93359375 C-6.11455078 168.48146484 -6.11455078 168.48146484 -5 167 C-3.49651128 164.94004177 -1.9963629 162.87764027 -0.5 160.8125 C0.66666667 159.20833333 1.83333333 157.60416667 3 156 C2.68289062 155.57074219 2.36578125 155.14148438 2.0390625 154.69921875 C-5.64981467 143.76062277 -12.40780655 131.67311769 -16 118.75 C-16.27469116 117.76205444 -16.27469116 117.76205444 -16.55493164 116.75415039 C-19.62465355 104.53875388 -20.36585752 92.10538452 -20.3125 79.5625 C-20.31067719 78.87434204 -20.30885437 78.18618408 -20.30697632 77.47717285 C-20.19379107 51.85675127 -18.65990912 19.54847622 0 0 Z M284 398 C284.3853894 398.77694214 284.3853894 398.77694214 284.77856445 399.56958008 C293.36993457 416.99403114 297.82982295 429.72672852 294.25 449.1875 C294.06663086 450.19707764 293.88326172 451.20665527 293.69433594 452.24682617 C288.33049869 481.0556004 276.62708252 507.44981125 253 526 C249.44273121 528.27243317 245.80774225 530.18593412 242 532 C240.845 532.61875 239.69 533.2375 238.5 533.875 C227.53750001 537.39866071 217.47924122 533.35379703 207 530 C205.66898394 529.65753081 204.33618191 529.3217247 203 529 C203.804375 529.928125 204.60875 530.85625 205.4375 531.8125 C207.38937224 534.07740836 209.291495 536.36542489 211.15625 538.703125 C226.68665561 558.16931833 249.46149978 568.0351862 273.89453125 571.3984375 C276.59876303 571.68472241 279.28394359 571.87028964 282 572 C282.94230469 572.05285156 283.88460937 572.10570312 284.85546875 572.16015625 C297.18971099 572.53490866 310.56300146 570.37076219 320.1796875 562.1328125 C329.51713513 552.51347965 333.15268634 539.78553345 336 527 C336.3403125 525.53433594 336.3403125 525.53433594 336.6875 524.0390625 C340.14248197 506.14033647 338.80682165 487.46552714 334 470 C333.79632813 469.22446777 333.59265625 468.44893555 333.3828125 467.64990234 C329.73941393 453.90000852 324.51297095 440.85707318 319.10400391 427.72070312 C317.33862491 423.37010968 315.72023829 418.9693247 314.1328125 414.55078125 C311.19048518 407.92547181 308.43094288 405.24846169 301.78320312 402.62890625 C300.88537109 402.29761719 299.98753906 401.96632813 299.0625 401.625 C297.72155273 401.09326172 297.72155273 401.09326172 296.35351562 400.55078125 C292.02875579 398.88765906 288.68218106 397.79572812 284 398 Z M201 408 C201.26554688 408.83402344 201.53109375 409.66804688 201.8046875 410.52734375 C203.83088718 416.98308215 205.65136749 423.36922349 207 430 C207.33 430 207.66 430 208 430 C208.97575437 419.81606753 208.97575437 419.81606753 205.625 410.5625 C203.37287237 407.76715443 203.37287237 407.76715443 201 408 Z M14 416.8125 C13.29875 417.33457031 12.5975 417.85664063 11.875 418.39453125 C9.77174884 420.04853207 9.77174884 420.04853207 8 423 C8.21758641 425.9011521 8.62173805 427.52306101 10.4375 429.8125 C11.93829743 431.20169442 11.93829743 431.20169442 14 431 C15.98 425.39 17.96 419.78 20 414 C17.24094775 414 16.18425273 415.16226494 14 416.8125 Z " fill="#040404" transform="translate(114,15)"/>
<path d="M0 0 C0.83402344 0.31324219 1.66804687 0.62648438 2.52734375 0.94921875 C11.47818223 4.7529716 19.48697989 10.92487847 27 17 C28.13747517 17.88129628 29.27695977 18.76000248 30.41796875 19.63671875 C44.7352173 30.65875772 57.76432 44.11142665 63 62 C63.66 62 64.32 62 65 62 C70.17217551 73.10573725 75.38641887 85.57939331 75 98 C75.66 98 76.32 98 77 98 C77.0825 97.154375 77.165 96.30875 77.25 95.4375 C78.72713928 88.66727829 81.75341267 84.5120866 87.32421875 80.609375 C113.26034635 65.00983548 137.59511729 65.05007986 167 70 C158.45503668 64.61924302 148.9590189 60.67762952 139 59 C136.98928973 58.6168155 134.97860216 58.23350872 132.96826172 57.84838867 C129.64835817 57.2156143 126.32545762 56.60306226 123 56 C122.07171387 55.82364014 121.14342773 55.64728027 120.18701172 55.46557617 C116.82579694 54.97455146 113.63440917 54.87050287 110.23828125 54.8671875 C108.95373047 54.86589844 107.66917969 54.86460938 106.34570312 54.86328125 C105.6819165 54.86537598 105.01812988 54.8674707 104.33422852 54.86962891 C102.33545515 54.87493902 100.33666235 54.86917443 98.33789062 54.86328125 C90.83459586 54.87077331 83.45619331 55.14435528 76 56 C75.5875 55.34515625 75.175 54.6903125 74.75 54.015625 C70.77852737 47.73927987 66.70239145 41.56003611 62.50390625 35.43359375 C61 33 61 33 61 31 C65.33331826 30.97031348 69.66660954 30.95297639 74 30.9375 C75.80210937 30.92493164 75.80210937 30.92493164 77.640625 30.91210938 C92.64679953 30.87219934 107.01550272 32.01309497 121.75 34.6875 C122.48679993 34.81872253 123.22359985 34.94994507 123.98272705 35.08514404 C135.13203404 37.08294796 146.01121413 39.51816001 156.73339844 43.22949219 C158.39423286 43.79407571 160.06600747 44.32674704 161.74316406 44.84082031 C169.60973931 47.29992976 176.72497184 50.6485145 184 54.5 C185.10472656 55.06847656 186.20945312 55.63695313 187.34765625 56.22265625 C192.20176077 58.76472071 196.25995111 60.9299468 200 65 C198.53191464 68.3523805 196.62540476 70.65640966 194.125 73.3125 C190.03950997 77.8190984 187.34120246 82.12660106 184.765625 87.64453125 C172.57945872 110.80363928 150.1014921 139.39466012 124.37890625 148.18359375 C121.84505045 149.015568 121.84505045 149.015568 118.875 150.37890625 C114.17344401 152.41782383 109.31827269 153.95146317 104.4375 155.5 C103.47183105 155.80752197 102.50616211 156.11504395 101.51123047 156.43188477 C94.07759732 158.75590193 86.67238449 160.62525534 79 162 C79.04640625 162.57363281 79.0928125 163.14726562 79.140625 163.73828125 C79.94456198 182.65951231 72.6194075 200.56092383 64 217 C63.34 217 62.68 217 62 217 C61.67 217.99 61.34 218.98 61 220 C60.34 220 59.68 220 59 220 C58.82597656 220.87591797 58.82597656 220.87591797 58.6484375 221.76953125 C56.19758085 230.19988756 47.75520262 236.08155942 41 241 C39.68747118 241.70674629 38.36143794 242.3927859 37 243 C37 243.66 37 244.32 37 245 C27.8429859 248.51808989 18.65296515 251.83777917 9.32421875 254.8737793 C4.41347452 256.48471411 -0.34931976 258.28329129 -5.0546875 260.43359375 C-7.39335619 261.11453142 -8.72488803 260.78047563 -11 260 C-9.27281484 259.03810003 -7.54315942 258.08063492 -5.8125 257.125 C-4.84957031 256.59132813 -3.88664063 256.05765625 -2.89453125 255.5078125 C-0.30260482 254.1576322 2.26761098 253.02901671 5 252 C5 251.34 5 250.68 5 250 C6.51171875 248.9140625 6.51171875 248.9140625 8.6875 247.625 C13.83628927 244.33958208 18.10453033 240.36407226 22.48120117 236.13916016 C25.18767607 233.55279875 27.59745256 231.5552247 31 230 C32.13350534 227.98330173 32.13350534 227.98330173 33 226 C33.66 225.67 34.32 225.34 35 225 C35.433125 224.278125 35.86625 223.55625 36.3125 222.8125 C38.92663393 218.45561011 41.72553245 214.84964503 46 212 C46.33 211.01 46.66 210.02 47 209 C46.54625 209.495 46.0925 209.99 45.625 210.5 C44 212 44 212 42 212 C41.731875 212.598125 41.46375 213.19625 41.1875 213.8125 C40.00082594 215.99847854 38.90400887 217.41332594 37 219 C36.34 219 35.68 219 35 219 C34.67 219.99 34.34 220.98 34 222 C33.34 222 32.68 222 32 222 C32 222.66 32 223.32 32 224 C30.40665761 225.43549726 28.74748918 226.79827327 27.0625 228.125 C23.46703422 230.99586936 19.95606522 233.89339067 16.5625 237 C8.88566043 243.85578721 1.17572429 249.91555872 -8.37109375 253.89453125 C-10.89445059 254.95561592 -13.2692708 256.15773596 -15.6875 257.4375 C-17.45679697 258.29484452 -19.22777106 259.14873273 -21 260 C-22.0209375 260.54398437 -23.041875 261.08796875 -24.09375 261.6484375 C-42.73161531 270.27857948 -67.44644838 267.18470914 -87 263 C-87 262.34 -87 261.68 -87 261 C-87.680625 260.96261719 -88.36125 260.92523438 -89.0625 260.88671875 C-108.96388438 259.5370238 -132.53972211 255.08318217 -147 240 C-147.66 239.67 -148.32 239.34 -149 239 C-149 238.34 -149 237.68 -149 237 C-149.804375 236.6596875 -149.804375 236.6596875 -150.625 236.3125 C-156.36532496 233.14021515 -161.21077089 228.33448211 -165 223 C-165 222.34 -165 221.68 -165 221 C-165.99 220.67 -166.98 220.34 -168 220 C-169.39453125 218.51293945 -169.39453125 218.51293945 -170.8125 216.61328125 C-171.33070313 215.92169922 -171.84890625 215.23011719 -172.3828125 214.51757812 C-172.91648438 213.78990234 -173.45015625 213.06222656 -174 212.3125 C-174.53367188 211.60416016 -175.06734375 210.89582031 -175.6171875 210.16601562 C-183 200.221257 -183 200.221257 -183 196 C-183.66 196 -184.32 196 -185 196 C-185.95270476 193.85641428 -186.90446874 191.7124804 -187.8515625 189.56640625 C-188.57880146 187.94124979 -189.321742 186.32295298 -190.0859375 184.71484375 C-192.24726497 180.10780362 -193.67505168 175.75860028 -194.60546875 170.75 C-194.84042152 168.98148427 -194.84042152 168.98148427 -196 168 C-197.88230538 159.6051928 -198.23177393 151.13160761 -198.3125 142.5625 C-198.32998291 141.62768799 -198.34746582 140.69287598 -198.36547852 139.72973633 C-198.35895519 131.63718762 -196.5868459 126.45295709 -191.25 120.1875 C-179.23987242 105.59125005 -172.19872161 91.53610217 -167.14526367 73.42651367 C-164.91712898 65.62777152 -162.25283648 58.24962493 -158.875 50.875 C-158.47941895 50.00609131 -158.08383789 49.13718262 -157.67626953 48.24194336 C-153.35042295 39.10950147 -147.90913242 31.47636813 -140.9375 24.1875 C-140.33873047 23.54619141 -139.73996094 22.90488281 -139.12304688 22.24414062 C-128.20863836 10.68419207 -114.60704744 4.06484978 -99.64453125 -0.80859375 C-97.60367665 -1.47575415 -95.57074744 -2.17711878 -93.5859375 -2.99609375 C-91.05687602 -3.97791973 -88.62322199 -4.65113767 -85.98046875 -5.25390625 C-85.04009766 -5.46853516 -84.09972656 -5.68316406 -83.13085938 -5.90429688 C-82.15955078 -6.12150391 -81.18824219 -6.33871094 -80.1875 -6.5625 C-79.22779297 -6.78357422 -78.26808594 -7.00464844 -77.27929688 -7.23242188 C-50.58273476 -13.26420485 -24.90934315 -10.85712342 0 0 Z " fill="#3F3938" transform="translate(307,72)"/>
<path d="M0 0 C8.36425991 0.21145863 15.98010099 2.55550259 22.52807617 7.87573242 C23.51807617 9.14416992 23.51807617 9.14416992 24.52807617 10.43823242 C27.56639133 14.47941211 27.56639133 14.47941211 31.52807617 17.43823242 C31.52807617 18.09823242 31.52807617 18.75823242 31.52807617 19.43823242 C32.17389648 19.67928711 32.8197168 19.9203418 33.48510742 20.16870117 C35.52807617 21.43823242 35.52807617 21.43823242 36.03979492 23.36401367 C36.12680664 24.54543945 36.12680664 24.54543945 36.21557617 25.75073242 C37.21172004 32.09653779 40.61483791 36.4237866 44.33666992 41.45776367 C46.52807617 44.43823242 46.52807617 44.43823242 48.16088867 47.16870117 C49.89685826 50.05041069 52.12486121 52.09363246 54.52807617 54.43823242 C55.18807617 55.32510742 55.84807617 56.21198242 56.52807617 57.12573242 C58.35726566 59.62920485 58.35726566 59.62920485 61.21557617 60.37573242 C61.97870117 60.72635742 62.74182617 61.07698242 63.52807617 61.43823242 C64.34057617 64.56323242 64.34057617 64.56323242 64.52807617 67.43823242 C65.18807617 67.43823242 65.84807617 67.43823242 66.52807617 67.43823242 C67.26450894 69.41321122 68.00067602 71.38828975 68.73510742 73.36401367 C69.30890875 74.86494228 69.93438456 76.34645118 70.59057617 77.81323242 C71.75476446 81.07295962 72.35298348 84.34084263 72.96557617 87.74291992 C73.51272351 90.56848779 73.51272351 90.56848779 74.54760742 93.77416992 C76.56453452 101.31153096 77.64434975 109.70548605 73.69213867 116.67651367 C71.41826241 119.40743151 69.04844867 121.93483213 66.52807617 124.43823242 C62.32055844 129.27373787 60.37110611 134.15041976 58.50854492 140.27026367 C57.87059239 142.3315366 57.16736929 144.37408704 56.39135742 146.38745117 C53.42051038 154.19504568 53.08563859 161.13023788 53.52807617 169.43823242 C52.69405273 169.51299805 51.8600293 169.58776367 51.00073242 169.66479492 C40.01311691 170.94857131 33.0342735 174.67804862 26.02416992 183.25854492 C18.79861865 193.7855883 17.2644594 207.99589514 16.52807617 220.43823242 C5.92431241 223.73718115 -4.25514018 224.76136506 -15.34692383 224.68823242 C-16.54317383 224.6959668 -17.73942383 224.70370117 -18.97192383 224.71166992 C-20.70055664 224.70780273 -20.70055664 224.70780273 -22.46411133 224.70385742 C-23.49906738 224.70160156 -24.53402344 224.6993457 -25.6003418 224.69702148 C-28.60151251 224.4265538 -30.73347137 223.65513134 -33.47192383 222.43823242 C-35.73376772 221.86017619 -38.00547404 221.31966571 -40.28442383 220.81323242 C-41.44586914 220.5528418 -42.60731445 220.29245117 -43.80395508 220.02416992 C-44.68438477 219.83081055 -45.56481445 219.63745117 -46.47192383 219.43823242 C-46.47192383 218.77823242 -46.47192383 218.11823242 -46.47192383 217.43823242 C-47.56504883 217.12885742 -48.65817383 216.81948242 -49.78442383 216.50073242 C-52.02600377 215.85485346 -54.25885893 215.17592072 -56.47192383 214.43823242 C-56.47192383 213.77823242 -56.47192383 213.11823242 -56.47192383 212.43823242 C-57.37942383 212.17010742 -58.28692383 211.90198242 -59.22192383 211.62573242 C-62.20184217 210.5369161 -64.15782742 209.57432141 -66.47192383 207.43823242 C-66.47192383 206.77823242 -66.47192383 206.11823242 -66.47192383 205.43823242 C-67.17317383 205.25260742 -67.87442383 205.06698242 -68.59692383 204.87573242 C-72.01443581 203.16697643 -73.6416574 201.1593294 -76.00317383 198.21948242 C-77.55054465 196.26159888 -77.55054465 196.26159888 -79.97192383 194.12573242 C-83.36678116 190.47626079 -88.47192383 184.64381279 -88.47192383 179.43823242 C-89.13192383 179.43823242 -89.79192383 179.43823242 -90.47192383 179.43823242 C-94.62606144 171.98398041 -97.10618876 164.55795788 -99.22192383 156.31323242 C-99.67631836 154.62133789 -99.67631836 154.62133789 -100.13989258 152.89526367 C-107.05098388 126.63311674 -104.08711891 98.36240515 -93.47192383 73.43823242 C-92.97507323 72.10249181 -92.48868624 70.76279309 -92.01489258 69.41870117 C-86.98799937 55.27312981 -80.2666126 43.44724047 -70.68774414 31.90356445 C-69.68455053 30.69449456 -68.69714589 29.47234259 -67.71411133 28.24682617 C-61.45364883 20.60085148 -53.6652811 14.91148732 -45.49536133 9.45776367 C-43.83005946 8.34541087 -42.17480563 7.2150881 -40.57348633 6.01245117 C-35.02011383 2.13636631 -27.97917772 2.61873877 -21.47192383 2.43823242 C-22.79192383 4.74823242 -24.11192383 7.05823242 -25.47192383 9.43823242 C-26.13192383 9.43823242 -26.79192383 9.43823242 -27.47192383 9.43823242 C-27.69750977 10.26709961 -27.9230957 11.0959668 -28.15551758 11.94995117 C-29.75132966 16.17861643 -32.0039245 19.53154107 -34.53442383 23.25073242 C-51.04823492 48.22423115 -59.66028 72.79603519 -59.65722656 102.94873047 C-59.65941559 105.3666336 -59.67763054 107.78408134 -59.6965332 110.2019043 C-59.72469653 118.22102428 -59.46961373 125.61328899 -57.47192383 133.43823242 C-57.45734131 132.75535156 -57.44275879 132.0724707 -57.42773438 131.36889648 C-57.09201855 117.20477317 -56.28847444 103.41603797 -53.81420898 89.45825195 C-53.52283002 87.73865884 -53.29345888 86.00874585 -53.07739258 84.27807617 C-51.09003417 68.7504737 -44.74417228 53.87398104 -37.39331055 40.18579102 C-36.00771916 37.55779337 -34.75162987 34.86902583 -33.47192383 32.18823242 C-26.70526846 18.76376869 -16.19536147 0.00549306 0 0 Z " fill="#403938" transform="translate(236.471923828125,352.561767578125)"/>
<path d="M0 0 C9.32054946 2.84300989 15.64909799 10.25892562 21 18 C21.41636719 18.58523438 21.83273437 19.17046875 22.26171875 19.7734375 C25 23.7127193 25 23.7127193 25 26 C25.99 26.33 26.98 26.66 28 27 C29.83203125 29.625 29.83203125 29.625 31.8125 33 C32.5153219 34.18584866 33.21976074 35.37074042 33.92578125 36.5546875 C34.27334473 37.13959961 34.6209082 37.72451172 34.97900391 38.32714844 C36.83938332 41.37528802 38.90330314 44.28391134 40.96875 47.1953125 C42 49 42 49 42 52 C43.485 52.495 43.485 52.495 45 53 C46.88579937 56.21284338 48 58.24633583 48 62 C48.66 62 49.32 62 50 62 C54.86504285 71.55702093 54.86504285 71.55702093 56.5625 75.6875 C57.93501779 79.04960933 57.93501779 79.04960933 59.90625 82.16796875 C62.2052302 86.14884826 63.57772057 90.24991438 64.9375 94.625 C66.65343969 100.02538874 68.48628777 105.23563619 70.75 110.4375 C73.77899625 118.02940726 74.23660888 125.92444839 74.78222656 134.00805664 C74.94615868 135.99474032 74.94615868 135.99474032 75.5065155 137.84367371 C76.03112632 140.13600936 76.12027728 142.14350638 76.11352539 144.49316406 C76.11341209 145.81408051 76.11341209 145.81408051 76.11329651 147.16168213 C76.10813522 148.10348328 76.10297394 149.04528442 76.09765625 150.015625 C76.0962413 150.98659119 76.09482635 151.95755737 76.09336853 152.95794678 C76.08777663 156.05532935 76.07522559 159.15263932 76.0625 162.25 C76.05748395 164.35156146 76.05292123 166.45312404 76.04882812 168.5546875 C76.03780985 173.70315292 76.02055074 178.85156416 76 184 C75.34 184 74.68 184 74 184 C74.05800781 184.71800781 74.11601562 185.43601562 74.17578125 186.17578125 C74.59981992 195.90443983 72.5541476 204.53884824 69.68212891 213.78881836 C69.23581749 215.23557658 68.82989058 216.69556721 68.47021484 218.16625977 C67.25058353 222.44806204 65.82937033 224.49377929 62.015625 226.86328125 C60.44031652 227.70493854 58.85108145 228.52096858 57.25 229.3125 C56.46367187 229.72822266 55.67734375 230.14394531 54.8671875 230.57226562 C50.33506579 232.93996044 45.73690646 235.0695484 41 237 C40.08444336 237.41149292 40.08444336 237.41149292 39.15039062 237.83129883 C33.67505868 240.15090097 28.66076488 240.54187083 22.75 240.5 C21.82485596 240.49500488 20.89971191 240.49000977 19.9465332 240.48486328 C8.70893293 240.19932012 0.47988485 236.19505381 -8 229 C-8.92425781 228.27296875 -8.92425781 228.27296875 -9.8671875 227.53125 C-14.08630149 224.12698635 -17.09159424 220.5829424 -20 216 C-20 215.34 -20 214.68 -20 214 C-20.66 214 -21.32 214 -22 214 C-22.53293835 212.25364835 -23.05090663 210.50272348 -23.5625 208.75 C-23.85253906 207.77546875 -24.14257812 206.8009375 -24.44140625 205.796875 C-25.01250935 202.93736577 -24.94902987 201.69437216 -24 199 C-23.77441406 198.24460937 -23.54882812 197.48921875 -23.31640625 196.7109375 C-23.06761719 195.94007813 -22.81882812 195.16921875 -22.5625 194.375 C-22.31628906 193.59898437 -22.07007813 192.82296875 -21.81640625 192.0234375 C-21 190 -21 190 -19 188 C-16.42897314 182.1248019 -14.61133353 176.06605086 -13.39453125 169.77734375 C-13 168 -13 168 -12 166 C-11.09736127 150.72352323 -11.00807512 134.82444254 -15 120 C-15.26296875 118.98325195 -15.5259375 117.96650391 -15.796875 116.91894531 C-19.54329039 102.35554029 -19.54329039 102.35554029 -24 88 C-25.74899071 82.68953315 -27.41785661 77.3625657 -29 72 C-29.32742188 70.89527344 -29.65484375 69.79054688 -29.9921875 68.65234375 C-34.5371748 50.84032207 -33.73885569 30.73689814 -25.578125 14.1015625 C-19.46270477 4.20510288 -11.71428189 -1.2855179 0 0 Z " fill="#3E3637" transform="translate(291,528)"/>
<path d="M0 0 C3.7666991 2.12542533 7.37187137 4.47492444 10.94140625 6.9140625 C13.92306376 9.00870772 13.92306376 9.00870772 16.90234375 10.6484375 C17.59457031 11.09445312 18.28679687 11.54046875 19 12 C19 12.66 19 13.32 19 14 C19.87398437 14.43119141 19.87398437 14.43119141 20.765625 14.87109375 C21.50296875 15.24363281 22.2403125 15.61617188 23 16 C23.63421875 16.30035156 24.2684375 16.60070312 24.921875 16.91015625 C27.32753742 18.42654602 28.52870212 19.53017587 30 22 C30.41936939 26.34933616 30.31157932 30.45983499 30.05078125 34.80859375 C29.85021963 38.92913693 30.66308936 42.11220239 32 46 C32.66 46 33.32 46 34 46 C37.91058106 50.51220891 37.29469532 55.37895957 37 61 C36.34 61 35.68 61 35 61 C33.68 58.36 32.36 55.72 31 53 C31.6218115 56.02152093 32.24734575 59.04219214 32.875 62.0625 C33.13603516 63.33383789 33.13603516 63.33383789 33.40234375 64.63085938 C34.4155253 69.49037831 35.60439886 74.23306434 37 79 C37.89576189 82.51391444 38.74245235 86.04008004 39.58789062 89.56640625 C40.20983151 93.07229314 40.20983151 93.07229314 42 96 C42.52017285 98.30362261 42.99039696 100.61858736 43.4375 102.9375 C43.70426522 104.31513552 43.9711925 105.69273967 44.23828125 107.0703125 C44.43284912 108.08206543 44.43284912 108.08206543 44.63134766 109.11425781 C45.10158525 111.5196321 45.61565739 113.91514306 46.125 116.3125 C48.08940965 126.393168 48.15738167 136.40905476 48.13037109 146.64086914 C48.12500383 149.06077313 48.13034737 151.48049221 48.13671875 153.90039062 C48.13958309 161.32504302 48.07257585 168.63668165 47 176 C46.34 176 45.68 176 45 176 C45.03480469 176.59425781 45.06960938 177.18851563 45.10546875 177.80078125 C45.33229808 184.7460794 44.00377197 190.39468053 42 197 C41.37528978 199.24311155 40.76387471 201.48965689 40.15209961 203.73632812 C35.36602319 221.26795362 35.36602319 221.26795362 33 226 C32.34 226 31.68 226 31 226 C30.814375 226.84691406 30.814375 226.84691406 30.625 227.7109375 C27.3035287 239.87582614 18.28175848 249.19480734 8 256 C7.09765625 256.598125 6.1953125 257.19625 5.265625 257.8125 C-7.72168948 266.23670399 -24.15089321 272.5184882 -40 270 C-47.25675188 268.01050847 -52.53085354 266.23900755 -57 260 C-58.11375 258.88625 -58.11375 258.88625 -59.25 257.75 C-62.32287758 254.67712242 -65.17399739 251.45268021 -68.03515625 248.18359375 C-69.99332397 245.95331143 -69.99332397 245.95331143 -72.24609375 243.84765625 C-74 242 -74 242 -74 240 C-73.44763672 239.9906543 -72.89527344 239.98130859 -72.32617188 239.97167969 C-51.31580939 239.52779879 -33.5146387 237.31488393 -18.19140625 221.5625 C-13.93109454 216.58074514 -11.29880914 211.86653324 -9.5625 205.5625 C-9.35858643 204.8300708 -9.15467285 204.0976416 -8.94458008 203.34301758 C-8.27947633 200.89956699 -7.64010133 198.45010802 -7 196 C-6.64856934 194.72044434 -6.64856934 194.72044434 -6.29003906 193.41503906 C-0.27350185 171.20201634 -0.11882288 148.4664065 -5 126 C-5.28133789 124.67500488 -5.28133789 124.67500488 -5.56835938 123.32324219 C-6.17192462 120.52320733 -6.79785561 117.72950461 -7.4375 114.9375 C-7.63045654 114.0926001 -7.82341309 113.2477002 -8.0222168 112.37719727 C-9.29098101 107.13404079 -10.98569173 102.24387452 -13.09301758 97.27758789 C-13.98412751 95.03985855 -14.64396364 92.82919167 -15.25 90.5 C-18.71619109 78.51903513 -24.81695986 67.20518318 -30.46875 56.1328125 C-32.23325926 52.52277059 -33.7118676 48.86247919 -35.078125 45.0859375 C-36.10880199 42.54186139 -36.10880199 42.54186139 -39 39 C-39 42.96 -39 46.92 -39 51 C-40.2684375 50.566875 -40.2684375 50.566875 -41.5625 50.125 C-45.02009762 48.9934226 -48.49978689 47.99054782 -52 47 C-52.53689484 31.15165967 -50.39284583 14.81784319 -40 2 C-39.01 1.67 -38.02 1.34 -37 1 C-37 0.34 -37 -0.32 -37 -1 C-24.29389562 -7.42475707 -12.65195945 -6.02144678 0 0 Z " fill="#3F3838" transform="translate(461,357)"/>
<path d="M0 0 C3.51092976 1.73336812 6.44844991 3.9968879 9.48046875 6.44140625 C10.0955127 6.93310303 10.71055664 7.4247998 11.34423828 7.93139648 C20.05904274 14.95159257 28.46447848 22.02758962 34.79296875 31.37890625 C34.79296875 32.03890625 34.79296875 32.69890625 34.79296875 33.37890625 C35.4065625 33.64445313 36.02015625 33.91 36.65234375 34.18359375 C39.45642531 35.74937652 40.68649681 37.74762657 42.0390625 40.6171875 C43.80712541 47.09397756 43.92341541 55.98756627 41.79296875 62.37890625 C41.68350681 65.1180302 41.62890284 67.83078429 41.625 70.5703125 C41.6216716 71.38902328 41.6183432 72.20773407 41.61491394 73.05125427 C41.60984517 74.79384806 41.6075056 76.53645158 41.60766602 78.27905273 C41.60551978 80.87957146 41.58747844 83.47963683 41.56835938 86.08007812 C41.538323 95.20085206 41.94176285 104.0943676 43.05943298 113.1479187 C45.13816839 130.01718796 46.33657164 149.89220798 36.234375 164.5703125 C35.75871094 165.16714844 35.28304687 165.76398438 34.79296875 166.37890625 C34.10847656 167.3225 33.42398438 168.26609375 32.71875 169.23828125 C29.33141813 173.27081919 24.97358542 175.5453026 20.41796875 178.06640625 C19.18046875 178.77506836 19.18046875 178.77506836 17.91796875 179.49804688 C3.89636414 187.43249456 -11.04841999 191.46553596 -27.1328125 187.57421875 C-37.03011412 184.32368934 -49.53081323 178.82243203 -54.45703125 169.12890625 C-55.08193858 167.56151573 -55.66708951 165.97755729 -56.20703125 164.37890625 C-56.56023437 163.53328125 -56.9134375 162.68765625 -57.27734375 161.81640625 C-58.65613066 158.20143552 -59.19758314 155.11200658 -58.20703125 151.37890625 C-56.47045075 148.94329714 -54.53559607 146.89245569 -52.4453125 144.75390625 C-46.80312789 138.76708558 -41.07344911 131.82261373 -41.27896118 123.53649902 C-41.16239549 120.04002296 -40.01441799 116.86517368 -38.90625 113.58203125 C-35.95972599 104.22255311 -34.43249752 94.81947576 -33.01953125 85.12890625 C-32.77126635 83.48551295 -32.52191965 81.84228271 -32.27148438 80.19921875 C-31.38632174 74.3662924 -30.50977743 68.53248064 -29.68847656 62.69018555 C-28.70285152 55.84775076 -27.29730096 49.31789258 -25.33203125 42.69140625 C-25.08839844 41.83224609 -24.84476563 40.97308594 -24.59375 40.08789062 C-20.39813147 25.64235429 -14.56817702 11.51013717 -4.20703125 0.37890625 C-2.20703125 -0.62109375 -2.20703125 -0.62109375 0 0 Z " fill="#3D3636" transform="translate(135.20703125,568.62109375)"/>
<path d="M0 0 C18.68134681 8.17321758 35.5282556 20.49911351 46.40844727 38.03417969 C47.14282227 40.37792969 47.14282227 40.37792969 47.40844727 42.03417969 C48.06844727 42.03417969 48.72844727 42.03417969 49.40844727 42.03417969 C49.82094727 43.02417969 50.23344727 44.01417969 50.65844727 45.03417969 C51.76851536 47.63817121 52.97108625 50.15182327 54.28344727 52.65917969 C58.92111347 61.91660605 62.16470292 70.62934298 62.40844727 81.03417969 C62.47032227 81.90429688 62.53219727 82.77441406 62.59594727 83.67089844 C63.10036604 94.46861293 59.62646922 104.57361974 54.45922852 113.94824219 C53.43630365 115.97888114 52.86542396 117.81457858 52.40844727 120.03417969 C51.74844727 120.03417969 51.08844727 120.03417969 50.40844727 120.03417969 C50.13000977 121.20980469 50.13000977 121.20980469 49.84594727 122.40917969 C47.84117237 127.46469899 44.90165154 131.86540289 41.40844727 136.03417969 C40.74844727 136.03417969 40.08844727 136.03417969 39.40844727 136.03417969 C39.38782227 136.71480469 39.36719727 137.39542969 39.34594727 138.09667969 C37.92712448 142.54232441 34.76552812 144.91585674 31.40844727 148.03417969 C30.66594727 148.83855469 29.92344727 149.64292969 29.15844727 150.47167969 C20.01068187 158.9957338 12.85397232 163.68242145 0.29907227 163.34277344 C-9.26254637 162.58437196 -17.46498779 158.38557441 -24.59155273 152.03417969 C-26.99889323 149.21037945 -28.85233374 146.30597779 -30.59155273 143.03417969 C-30.93057617 142.44378906 -31.26959961 141.85339844 -31.61889648 141.24511719 C-33.8212184 136.63749438 -33.89508244 131.87966298 -33.96655273 126.84667969 C-33.98758057 125.81208618 -33.98758057 125.81208618 -34.0090332 124.7565918 C-33.93703351 117.13662467 -30.16779822 113.32311067 -25.15405273 108.03417969 C-18.60213304 101.06668613 -14.22113596 94.88486685 -10.59155273 86.03417969 C-10.19323242 85.06867188 -9.79491211 84.10316406 -9.38452148 83.10839844 C-5.48762395 72.71208169 -5.07992032 62.97398819 -9.30639648 52.61230469 C-11.02740568 49.15982423 -13.05741518 46.02802989 -15.32202148 42.90917969 C-16.59155273 41.03417969 -16.59155273 41.03417969 -17.59155273 38.03417969 C-18.58155273 37.70417969 -19.57155273 37.37417969 -20.59155273 37.03417969 C-22.27643269 35.38592756 -23.94069432 33.71650607 -25.59155273 32.03417969 C-32.01130423 26.74570246 -38.60621597 22.34040925 -45.97436523 18.50683594 C-51.24481463 15.54122486 -56.21969594 12.09196487 -59.59155273 7.03417969 C-60.25255871 2.99160628 -60.51083618 -1.16754074 -58.61108398 -4.88378906 C-45.78832796 -20.8629158 -14.79028365 -6.11502099 0 0 Z " fill="#3F3837" transform="translate(337.591552734375,373.9658203125)"/>
<path d="M0 0 C2.00720923 0.28674418 4.0085944 0.61866701 6 1 C6 1.66 6 2.32 6 3 C9.63 3.99 13.26 4.98 17 6 C17 6.66 17 7.32 17 8 C17.9075 8.0825 18.815 8.165 19.75 8.25 C23.0874024 8.71169598 25.97518247 9.69269027 29.125 10.875 C39.69637203 14.54098652 51.41651499 15.78341843 62.5625 16.3125 C75.48499069 17.34464782 88.84340391 22.60536566 100 29 C100 29.66 100 30.32 100 31 C99.42145264 31.24121582 98.84290527 31.48243164 98.24682617 31.73095703 C83.90179107 37.64931593 83.90179107 37.64931593 70.15625 44.80859375 C67.83441238 46.09149316 65.47877887 47.06172983 63 48 C63 48.66 63 49.32 63 50 C60.47171101 51.87815754 58.56788987 52.91689417 55.4375 53.375 C52.51136785 52.92482582 51.11978162 52.04127119 49 50 C49 49.34 49 48.68 49 48 C48.26394531 47.73832031 47.52789062 47.47664063 46.76953125 47.20703125 C43.96824039 45.98615837 42.03613804 44.62394562 39.6875 42.6875 C34.83650899 38.80832689 29.93876348 34.97958783 24 33 C24.20681396 33.58491211 24.41362793 34.16982422 24.62670898 34.77246094 C25.56552168 37.43098024 26.50153798 40.09047582 27.4375 42.75 C27.76298828 43.67039063 28.08847656 44.59078125 28.42382812 45.5390625 C28.73642578 46.42851563 29.04902344 47.31796875 29.37109375 48.234375 C29.65911865 49.05131836 29.94714355 49.86826172 30.24389648 50.70996094 C35.26190858 65.90820228 30.36335465 80.83497791 23.68554688 94.73632812 C21.84758847 98.33210891 19.94446815 101.88763266 18.00341797 105.42871094 C13.85634138 113.03529585 10.74966907 120.79740071 8 129 C7.01 129 6.02 129 5 129 C3.61328125 127.3203125 3.61328125 127.3203125 2.3125 125.125 C1.87550781 124.40570313 1.43851563 123.68640625 0.98828125 122.9453125 C0 121 0 121 0 119 C-0.66 119 -1.32 119 -2 119 C-2.23074219 118.41734375 -2.46148437 117.8346875 -2.69921875 117.234375 C-3.02535156 116.41453125 -3.35148437 115.5946875 -3.6875 114.75 C-4.05101563 113.82445312 -4.41453125 112.89890625 -4.7890625 111.9453125 C-5.56305588 110.06276087 -6.38715822 108.19955631 -7.2734375 106.3671875 C-14.64163694 90.69301777 -14.29190867 73.63813044 -14.375 56.6875 C-14.38294586 55.82918579 -14.39089172 54.97087158 -14.39907837 54.08654785 C-14.53704599 34.64864925 -11.39478837 17.83156116 -1 1 C-0.67 0.67 -0.34 0.34 0 0 Z " fill="#413A38" transform="translate(116,31)"/>
<path d="M0 0 C-0.33 0.66 -0.66 1.32 -1 2 C-1.66 2 -2.32 2 -3 2 C-3.0825 2.515625 -3.165 3.03125 -3.25 3.5625 C-4.08843015 6.287398 -5.43730755 8.49331235 -6.88671875 10.93359375 C-8.57359085 14.06466511 -9.80526567 17.34852769 -11.0703125 20.66796875 C-12 23 -12 23 -13.02734375 24.9296875 C-14.67997984 28.44734665 -15.28486322 32.24758174 -16.12109375 36.02734375 C-17.78310912 41.64864906 -19.92911496 44.19766879 -25 47 C-25.495 47.99 -25.495 47.99 -26 49 C-26.66 49 -27.32 49 -28 49 C-28 49.66 -28 50.32 -28 51 C-28.66 51 -29.32 51 -30 51 C-30.226875 51.556875 -30.45375 52.11375 -30.6875 52.6875 C-32.70432052 56.24094569 -35.65262692 58.80233504 -38.6875 61.5 C-40.41205886 63.47092441 -41.13836409 65.54765165 -42 68 C-42.99 67.67 -43.98 67.34 -45 67 C-46.1875 63.9375 -46.1875 63.9375 -47 61 C-47.86081008 69.95242488 -44.48734752 77.83276506 -39.125 84.9375 C-35.62937613 90.10446903 -36.95643037 96.15269715 -38 102 C-38.33 102.66 -38.66 103.32 -39 104 C-39.09572777 105.40629519 -39.13074094 106.81701446 -39.1328125 108.2265625 C-39.13450439 109.08660889 -39.13619629 109.94665527 -39.13793945 110.83276367 C-39.13366943 111.75420166 -39.12939941 112.67563965 -39.125 113.625 C-39.1252417 114.56255127 -39.1254834 115.50010254 -39.12573242 116.46606445 C-39.09436674 123.70538621 -38.64805438 130.84212455 -37.92578125 138.04296875 C-37.96251953 139.50669922 -37.96251953 139.50669922 -38 141 C-41.77014683 143.51343122 -44.6433526 143.83894899 -49 143 C-55.40393028 140.09821909 -60.94261329 135.83750033 -66 131 C-66 130.34 -66 129.68 -66 129 C-66.66 129 -67.32 129 -68 129 C-76.1894835 121.45876057 -81.9012837 111.22912386 -86 101 C-86.54140625 99.71029297 -86.54140625 99.71029297 -87.09375 98.39453125 C-92.13778117 86.19878446 -93.10758886 71.77325491 -88.98046875 59.0625 C-87.56826385 56.09180602 -85.76933077 54.71434762 -83 53 C-80.53471284 50.61150048 -78.15131051 48.15850309 -75.78125 45.67578125 C-61.09856914 30.46512728 -42.65903467 18.38334681 -23.81884766 8.91455078 C-21.92883797 7.9642184 -20.04821897 6.99682539 -18.16796875 6.02734375 C-3.22012069 -1.61006035 -3.22012069 -1.61006035 0 0 Z " fill="#403938" transform="translate(162,367)"/>
<path d="M0 0 C-0.48044307 5.99886551 -1.73977572 10.48526713 -4.5 15.8125 C-4.85384766 16.50682129 -5.20769531 17.20114258 -5.57226562 17.91650391 C-8.94729234 24.30452514 -13.23157522 29.59129203 -18 35 C-19.29884788 36.66107638 -20.59063293 38.32770165 -21.875 40 C-32.08434851 52.741429 -43.36279085 61.56364821 -58 68.6875 C-59.38058594 69.37682617 -59.38058594 69.37682617 -60.7890625 70.08007812 C-70.4218051 74.83539683 -79.31357742 78.45595415 -90 80 C-90.03536362 79.45035583 -90.07072723 78.90071167 -90.10716248 78.33441162 C-90.47902627 72.55813975 -90.8524775 66.78197199 -91.22680664 61.00585938 C-91.36587692 58.85679658 -91.50455685 56.70770848 -91.64282227 54.55859375 C-91.84285836 51.45045166 -92.04435718 48.34240712 -92.24609375 45.234375 C-92.31013397 44.23455597 -92.37417419 43.23473694 -92.44015503 42.20462036 C-92.83193321 36.19255698 -93.30458313 30.20464905 -93.98266602 24.21728516 C-94.02045738 19.38318362 -91.69973633 16.06696332 -88.734375 12.4609375 C-82.81731815 6.63730786 -74.41464235 3.48706498 -67 0 C-66.06671875 -0.44988281 -65.1334375 -0.89976562 -64.171875 -1.36328125 C-46.43146615 -9.66024117 -18.14521313 -6.64553984 0 0 Z " fill="#D7CAE0" transform="translate(478,144)"/>
<path d="M0 0 C4.33331826 -0.02968652 8.66660954 -0.04702361 13 -0.0625 C14.80210937 -0.07506836 14.80210937 -0.07506836 16.640625 -0.08789062 C31.64679953 -0.12780066 46.01550272 1.01309497 60.75 3.6875 C61.85519989 3.8843338 61.85519989 3.8843338 62.98272705 4.08514404 C74.13203404 6.08294796 85.01121413 8.51816001 95.73339844 12.22949219 C97.39423286 12.79407571 99.06600747 13.32674704 100.74316406 13.84082031 C108.60973931 16.29992976 115.72497184 19.6485145 123 23.5 C124.10472656 24.06847656 125.20945312 24.63695313 126.34765625 25.22265625 C131.20176077 27.76472071 135.25995111 29.9299468 139 34 C137.53191464 37.3523805 135.62540476 39.65640966 133.125 42.3125 C129.03950997 46.8190984 126.34120246 51.12660106 123.765625 56.64453125 C110.87858686 81.13560594 88.02769612 108.92536519 61 118 C59.88625 118.495 58.7725 118.99 57.625 119.5 C43.49912079 125.3451914 43.49912079 125.3451914 37 125 C36.34 122.03 35.68 119.06 35 116 C35.64582031 115.75507813 36.29164063 115.51015625 36.95703125 115.2578125 C50.78274405 109.7729196 65.06617679 103.25289116 76 93 C76.84820312 92.20722656 77.69640625 91.41445312 78.5703125 90.59765625 C83.91766472 85.41790761 88.59710584 79.99115278 93 74 C93.64710938 73.16984375 94.29421875 72.3396875 94.9609375 71.484375 C101.87143304 62.42924291 107.95775294 52.34581698 110 41 C109.38125 40.896875 108.7625 40.79375 108.125 40.6875 C106 40 106 40 104 37 C102.34354502 35.99275761 102.34354502 35.99275761 100.40234375 35.24609375 C99.68812256 34.94993164 98.97390137 34.65376953 98.23803711 34.34863281 C97.47885986 34.04795898 96.71968262 33.74728516 95.9375 33.4375 C95.15963135 33.12522461 94.3817627 32.81294922 93.58032227 32.49121094 C88.43356761 30.46594006 83.46824109 28.88225615 78 28 C75.99138578 27.6180804 73.98281335 27.23593116 71.97485352 26.85058594 C68.65294484 26.21598399 65.32773232 25.60347477 62 25 C61.07171387 24.82364014 60.14342773 24.64728027 59.18701172 24.46557617 C55.82579694 23.97455146 52.63440917 23.87050287 49.23828125 23.8671875 C47.31145508 23.86525391 47.31145508 23.86525391 45.34570312 23.86328125 C44.6819165 23.86537598 44.01812988 23.8674707 43.33422852 23.86962891 C41.33545515 23.87493902 39.33666235 23.86917443 37.33789062 23.86328125 C29.83459586 23.87077331 22.45619331 24.14435528 15 25 C14.5875 24.34515625 14.175 23.6903125 13.75 23.015625 C9.77852737 16.73927987 5.70239145 10.56003611 1.50390625 4.43359375 C0 2 0 2 0 0 Z " fill="#3B3335" transform="translate(368,103)"/>
<path d="M0 0 C2.05316621 1.27629251 4.01815528 2.61687701 6 4 C6.87011719 4.56332031 7.74023438 5.12664063 8.63671875 5.70703125 C17.47406431 12.01253156 20.11839848 18.93639165 23 29 C23.20367187 29.69609375 23.40734375 30.3921875 23.6171875 31.109375 C27.24018053 49.00252427 18.30484406 66.61685109 9.82104492 81.80883789 C6.88913471 87.07455491 4.68041571 92.20726261 3 98 C2.01 97.67 1.02 97.34 0 97 C0 96.01 0 95.02 0 94 C-0.66 94 -1.32 94 -2 94 C-2.96287814 90.6888043 -3.91944917 87.37581696 -4.875 84.0625 C-5.14441406 83.13630859 -5.41382812 82.21011719 -5.69140625 81.25585938 C-8.21460287 72.48621259 -10.36375719 64.35672182 -10.25 55.1875 C-10.24323242 54.37490723 -10.23646484 53.56231445 -10.22949219 52.72509766 C-9.94441485 35.41825146 -9.06513363 15.21647431 0 0 Z " fill="#D5C9DE" transform="translate(124,55)"/>
<path d="M0 0 C1.64258789 -0.00193359 1.64258789 -0.00193359 3.31835938 -0.00390625 C4.44951172 -0.00003906 5.58066406 0.00382813 6.74609375 0.0078125 C7.85017578 0.00394531 8.95425781 0.00007812 10.09179688 -0.00390625 C23.29374033 0.01150758 35.46178034 1.34099133 48.30859375 4.4453125 C49.58863281 4.74115234 50.86867188 5.03699219 52.1875 5.34179688 C59.73272739 7.12963735 66.97206927 9.27867921 74.18359375 12.1328125 C72.73202721 16.48751212 69.39487248 17.56081169 65.55859375 19.6328125 C64.85863281 20.02339844 64.15867187 20.41398438 63.4375 20.81640625 C59.11685966 23.19716726 54.76230878 25.28074799 50.18359375 27.1328125 C49.57209473 27.40738281 48.9605957 27.68195312 48.33056641 27.96484375 C42.85737121 30.28555551 37.84248168 30.67467003 31.93359375 30.6328125 C31.00844971 30.62781738 30.08330566 30.62282227 29.13012695 30.61767578 C17.881932 30.33186342 9.67780851 26.31880763 1.18359375 19.1328125 C0.57902344 18.67132812 -0.02554687 18.20984375 -0.6484375 17.734375 C-5.409109 13.97977133 -9.01206004 9.52578599 -11.81640625 4.1328125 C-11.81640625 3.1428125 -11.81640625 2.1528125 -11.81640625 1.1328125 C-7.82822098 0.38902093 -4.0550807 0.00469067 0 0 Z " fill="#D4C8DD" transform="translate(281.81640625,737.8671875)"/>
<path d="M0 0 C2.00720923 0.28674418 4.0085944 0.61866701 6 1 C6 1.66 6 2.32 6 3 C8.475 3.495 8.475 3.495 11 4 C10.67 4.639375 10.34 5.27875 10 5.9375 C8.66943072 10.01236841 8.83340801 13.75190425 9 18 C9.66 18 10.32 18 11 18 C11.309375 19.60875 11.309375 19.60875 11.625 21.25 C13.28882763 25.78771171 14.75493901 26.83585126 19 29 C21.7282504 29.78215588 21.7282504 29.78215588 24 30 C24 30.66 24 31.32 24 32 C24.99 32.33 25.98 32.66 27 33 C26.01 33 25.02 33 24 33 C23.67 33.99 23.34 34.98 23 36 C16.07 30.555 16.07 30.555 9 25 C-0.04728384 34.04728384 -0.48191083 56.80270057 -1 69 C-1.05679932 69.99773437 -1.05679932 69.99773437 -1.11474609 71.015625 C-1.84752588 84.96626808 -0.1545673 98.82270427 5.1640625 111.8515625 C6 114 6 114 6 118 C6.66 118 7.32 118 8 118 C10.21538462 123.29230769 10.21538462 123.29230769 9.125 126.875 C8.75375 127.57625 8.3825 128.2775 8 129 C7.01 129 6.02 129 5 129 C3.61328125 127.3203125 3.61328125 127.3203125 2.3125 125.125 C1.87550781 124.40570313 1.43851563 123.68640625 0.98828125 122.9453125 C0 121 0 121 0 119 C-0.66 119 -1.32 119 -2 119 C-2.23074219 118.41734375 -2.46148437 117.8346875 -2.69921875 117.234375 C-3.02535156 116.41453125 -3.35148437 115.5946875 -3.6875 114.75 C-4.05101563 113.82445312 -4.41453125 112.89890625 -4.7890625 111.9453125 C-5.56305588 110.06276087 -6.38715822 108.19955631 -7.2734375 106.3671875 C-14.64163694 90.69301777 -14.29190867 73.63813044 -14.375 56.6875 C-14.38294586 55.82918579 -14.39089172 54.97087158 -14.39907837 54.08654785 C-14.53704599 34.64864925 -11.39478837 17.83156116 -1 1 C-0.67 0.67 -0.34 0.34 0 0 Z " fill="#372D33" transform="translate(116,31)"/>
<path d="M0 0 C1.04220703 -0.00064453 2.08441406 -0.00128906 3.15820312 -0.00195312 C12.75843667 0.06239945 22.17740432 0.93144963 31.6875 2.1875 C28.35798213 9.67891521 23.29967527 12.94953939 16.375 16.8125 C15.54548828 17.28945313 14.71597656 17.76640625 13.86132812 18.2578125 C-0.10244658 26.1930278 -15.47082497 30.58683913 -31.484375 26.20703125 C-37.43640248 24.13148519 -43.0093709 21.59665442 -48.3125 18.1875 C-46.03847265 12.04762614 -40.67242929 9.2048005 -35.0625 6.5625 C-23.40797954 1.53381953 -12.61074034 -0.0081098 0 0 Z " fill="#D4C9DD" transform="translate(139.3125,729.8125)"/>
<path d="M0 0 C8.58014276 -0.63296135 13.72449413 0.62282317 20.47265625 5.953125 C31.03698556 15.06744832 42.71802011 28.60519727 44 43 C30.223129 43.72403994 19.50218134 41.35983881 9 32 C6.59282129 29.17638953 4.73681135 26.27300093 3 23 C2.66097656 22.39800781 2.32195312 21.79601562 1.97265625 21.17578125 C-1.11487059 14.61656525 -0.2486959 7.07401677 0 0 Z " fill="#FBFBFB" transform="translate(304,494)"/>
<path d="M0 0 C3.94941634 1.28356031 7.82331736 2.68287964 11.6796875 4.21875 C19.99100769 7.01717431 27.68700165 7.37490819 36.39453125 7.56640625 C37.34457031 7.59605469 38.29460937 7.62570313 39.2734375 7.65625 C40.56386963 7.68428711 40.56386963 7.68428711 41.88037109 7.71289062 C44 8 44 8 46 10 C45.67 11.65 45.34 13.3 45 15 C36.09 15 27.18 15 18 15 C17.34 16.98 16.68 18.96 16 21 C15.4740625 22.4540625 15.4740625 22.4540625 14.9375 23.9375 C13.88598315 27.07379931 13.88598315 27.07379931 13.5 30.75 C13 34 13 34 11 36 C7.875 36.125 7.875 36.125 5 36 C2.18397817 27.55193452 5.2380731 20.0885002 8 12 C7.44570312 11.81824219 6.89140625 11.63648438 6.3203125 11.44921875 C5.59585938 11.19785156 4.87140625 10.94648438 4.125 10.6875 C3.40570313 10.44386719 2.68640625 10.20023438 1.9453125 9.94921875 C0 9 0 9 -2 6 C-1.45945946 1.45945946 -1.45945946 1.45945946 0 0 Z " fill="#F4F4F3" transform="translate(196,188)"/>
<path d="M0 0 C7.44789212 -0.40299216 13.8638674 0.4537717 21.0546875 2.44140625 C25.2137182 3.23018794 28.04864396 2.31711868 32 1 C32.96019364 2.58220587 33.91807798 4.16581331 34.875 5.75 C35.40867187 6.63171875 35.94234375 7.5134375 36.4921875 8.421875 C36.98976563 9.27265625 37.48734375 10.1234375 38 11 C38.39445312 11.66515625 38.78890625 12.3303125 39.1953125 13.015625 C40.17952996 15.44272436 40.14413954 17.40548835 40 20 C26.07184686 20.73199053 15.70931636 18.24545297 5 9 C0 3.41441441 0 3.41441441 0 0 Z " fill="#D3C8DA" transform="translate(308,517)"/>
<path d="M0 0 C0.83251459 2.89249657 1.10855643 5.41669311 1.0625 8.421875 C1.05029419 9.70227661 1.05029419 9.70227661 1.0378418 11.00854492 C1.01911011 12.36556519 1.01911011 12.36556519 1 13.75 C0.91847281 21.92044261 1.25891201 29.91460757 2.07421875 38.04296875 C2.04972656 39.01878906 2.02523437 39.99460937 2 41 C-1.08888522 43.05925681 -1.70935927 43.2390374 -5.1875 43.125 C-6.445625 43.08375 -7.70375 43.0425 -9 43 C-12.55240611 37.39319036 -11.78056011 29.3919531 -11 23 C-8.80389422 14.93353452 -5.28360337 6.54160417 0 0 Z " fill="#D2C6DA" transform="translate(122,467)"/>
<path d="M0 0 C0.30061133 4.6731397 -0.33648691 7.25933975 -2.75 11.25 C-7.47229001 19.50287004 -10.29644538 26.85062468 -11.41015625 36.3359375 C-12.05477563 39.24739719 -13.05506382 40.77570984 -15 43 C-18.875 42.125 -18.875 42.125 -20 41 C-21.25916554 33.65221123 -19.37777871 26.80767431 -17.3125 19.8125 C-17.06878662 18.96969482 -16.82507324 18.12688965 -16.57397461 17.25854492 C-14.64605175 11.05230129 -12.2843285 3.92253376 -6.4375 0.5 C-4 0 -4 0 0 0 Z " fill="#F7F6F5" transform="translate(298,162)"/>
<path d="M0 0 C0.763125 0.20625 1.52625 0.4125 2.3125 0.625 C1.67650308 4.76281131 0.26994223 8.09314875 -1.5 11.875 C-4.33380225 18.13113726 -6.02450015 24.39451065 -7.39379883 31.11425781 C-8.50079543 36.43829543 -8.50079543 36.43829543 -10.6875 38.625 C-13.62203261 38.25818342 -14.55187246 37.76062754 -16.6875 35.625 C-17.88890109 24.33182977 -12.55974534 10.49241335 -5.6875 1.625 C-2.6875 -0.375 -2.6875 -0.375 0 0 Z " fill="#F7F6F5" transform="translate(188.6875,139.375)"/>
<path d="M0 0 C0.33 0 0.66 0 1 0 C1.33 6.6 1.66 13.2 2 20 C-3.21394393 18.95721121 -4.85016627 17.8777056 -8.8125 14.5625 C-10.27623047 13.35787109 -10.27623047 13.35787109 -11.76953125 12.12890625 C-12.50558594 11.42636719 -13.24164063 10.72382813 -14 10 C-14 9.34 -14 8.68 -14 8 C-14.66 8 -15.32 8 -16 8 C-16 7.34 -16 6.68 -16 6 C-14.824375 5.731875 -13.64875 5.46375 -12.4375 5.1875 C-5.70326419 3.59773945 -5.70326419 3.59773945 0 0 Z " fill="#332B30" transform="translate(110,488)"/>
<path d="M0 0 C-1.32 2.31 -2.64 4.62 -4 7 C-4.66 7 -5.32 7 -6 7 C-6.33 7.66 -6.66 8.32 -7 9 C-9.05583062 9.23984691 -11.11350401 9.46852369 -13.17578125 9.64453125 C-17.63126518 10.2053183 -21.93072603 11.36830208 -26.27734375 12.4765625 C-29 13 -29 13 -31 12 C-20.45713312 4.44816779 -13.40573561 -0.27358644 0 0 Z " fill="#332C2E" transform="translate(215,355)"/>
<path d="M0 0 C0.33 4.29 0.66 8.58 1 13 C-1.908125 13.309375 -1.908125 13.309375 -4.875 13.625 C-11.66749505 14.63680649 -16.46686074 17.02813028 -22 21 C-21.49854743 17.01548499 -20.74517572 15.2716114 -17.625 12.75 C-16.9134375 12.16605469 -16.201875 11.58210937 -15.46875 10.98046875 C-14.6540625 10.32691406 -13.839375 9.67335938 -13 9 C-12.0409375 8.19175781 -11.081875 7.38351562 -10.09375 6.55078125 C-2.27806122 0 -2.27806122 0 0 0 Z " fill="#342D30" transform="translate(289,509)"/>
<path d="M0 0 C-0.61875 0.20625 -1.2375 0.4125 -1.875 0.625 C-2.57625 1.07875 -3.2775 1.5325 -4 2 C-4.309375 3.4540625 -4.309375 3.4540625 -4.625 4.9375 C-6 8 -6 8 -8.203125 8.98828125 C-9.95463455 9.48761511 -11.71833907 9.94635954 -13.4921875 10.359375 C-16.00385711 10.88933651 -16.00385711 10.88933651 -18.0703125 12.140625 C-20.46250569 13.20597419 -21.58239518 12.86343029 -24 12 C-22.27281484 11.03810003 -20.54315942 10.08063492 -18.8125 9.125 C-17.36810547 8.32449219 -17.36810547 8.32449219 -15.89453125 7.5078125 C-13.30260482 6.1576322 -10.73238902 5.02901671 -8 4 C-8 3.34 -8 2.68 -8 2 C-3.61016949 -1.20338983 -3.61016949 -1.20338983 0 0 Z " fill="#2B2729" transform="translate(320,320)"/>
<path d="M0 0 C0.66 0 1.32 0 2 0 C1.67140682 3.06686972 1.10394436 3.91291148 -1.3125 5.9375 C-2.199375 6.618125 -3.08625 7.29875 -4 8 C-6.48792535 10.84334325 -8.46436146 13.54481328 -10 17 C-10.93423645 13.98968256 -11.04449911 13.13349732 -10 10 C-8.02043058 8.30911778 -6.02054804 6.64169528 -4 5 C-3.67 4.34 -3.34 3.68 -3 3 C-2.34 3 -1.68 3 -1 3 C-0.67 2.01 -0.34 1.02 0 0 Z " fill="#1C1318" transform="translate(352,281)"/>
<path d="M0 0 C0.99 0 1.98 0 3 0 C1.68775452 3.93673644 0.08089673 6.22719294 -3 9 C-4.32 8.34 -5.64 7.68 -7 7 C-5.37660195 5.29115995 -3.70680947 3.62553283 -2 2 C-1.34 2 -0.68 2 0 2 C0 1.34 0 0.68 0 0 Z " fill="#0B080B" transform="translate(339,294)"/>
<path d="M0 0 C0.82514784 2.83384108 1.07936233 5.16935251 0.87890625 8.109375 C0.83056641 8.86347656 0.78222656 9.61757813 0.73242188 10.39453125 C0.64831055 11.56048828 0.64831055 11.56048828 0.5625 12.75 C0.51029297 13.54277344 0.45808594 14.33554687 0.40429688 15.15234375 C0.27510676 17.10193997 0.13830035 19.05102886 0 21 C-0.33 21 -0.66 21 -1 21 C-1 16.05 -1 11.1 -1 6 C-1.99 6.33 -2.98 6.66 -4 7 C-2.79618552 4.50638429 -1.54571278 2.31856917 0 0 Z " fill="#B4ADB8" transform="translate(122,467)"/>
<path d="M0 0 C0.66 0 1.32 0 2 0 C3 5.75 3 5.75 3 8 C3.66 8.33 4.32 8.66 5 9 C3.02 9.99 3.02 9.99 1 11 C0.63890458 9.35567294 0.28629924 7.7094792 -0.0625 6.0625 C-0.25972656 5.14597656 -0.45695313 4.22945312 -0.66015625 3.28515625 C-0.77230469 2.53105469 -0.88445312 1.77695312 -1 1 C-0.67 0.67 -0.34 0.34 0 0 Z " fill="#332C2E" transform="translate(139,508)"/>
<path d="M0 0 C2.31 0.33 4.62 0.66 7 1 C7 1.66 7 2.32 7 3 C7.99 3.33 8.98 3.66 10 4 C9.01 4 8.02 4 7 4 C6.67 4.99 6.34 5.98 6 7 C3.95880212 5.38405168 1.95927063 3.7143618 0 2 C0 1.34 0 0.68 0 0 Z " fill="#242122" transform="translate(133,60)"/>
<path d="M0 0 C-4.29 0 -8.58 0 -13 0 C-13.33 -0.66 -13.66 -1.32 -14 -2 C-9.01173376 -3.79577585 -4.32175795 -2.88117196 0 0 Z " fill="#332C2D" transform="translate(414,126)"/>
<path d="M0 0 C1.10844919 3.32534757 0.84454356 5.62182575 0 9 C-2.475 8.01 -2.475 8.01 -5 7 C-3.70700306 4.11562221 -2.34058637 2.12780579 0 0 Z " fill="#BBB4C2" transform="translate(96,741)"/>
<path d="M0 0 C2.4375 1.1875 2.4375 1.1875 3.4375 3.1875 C1.4575 3.8475 -0.5225 4.5075 -2.5625 5.1875 C-3.2225 3.5375 -3.8825 1.8875 -4.5625 0.1875 C-2.5625 -0.8125 -2.5625 -0.8125 0 0 Z " fill="#302B2C" transform="translate(135.5625,568.8125)"/>
<path d="M0 0 C0.66 0.66 1.32 1.32 2 2 C1.8125 4.0625 1.8125 4.0625 1 6 C0.01 6.33 -0.98 6.66 -2 7 C-1.67 8.32 -1.34 9.64 -1 11 C-1.99 11.33 -2.98 11.66 -4 12 C-2 3.42857143 -2 3.42857143 0 0 Z " fill="#C5BBC8" transform="translate(117,475)"/>
<path d="M0 0 C0.99 0.33 1.98 0.66 3 1 C1.68 3.31 0.36 5.62 -1 8 C-1.93065133 5.39417629 -2.14917407 4.35801776 -1.0625 1.75 C-0.711875 1.1725 -0.36125 0.595 0 0 Z " fill="#342C2E" transform="translate(299,476)"/>
<path d="M0 0 C0.66 0 1.32 0 2 0 C2 2.97 2 5.94 2 9 C-0.57781906 6.42218094 -0.62129616 4.5598161 -1 1 C-0.67 0.67 -0.34 0.34 0 0 Z " fill="#DAD2E2" transform="translate(119,473)"/>
<path d="M0 0 C0.66 0.33 1.32 0.66 2 1 C1.67 1.66 1.34 2.32 1 3 C0.34 3 -0.32 3 -1 3 C-1.33 4.32 -1.66 5.64 -2 7 C-2.66 6.67 -3.32 6.34 -4 6 C-3.6875 4.125 -3.6875 4.125 -3 2 C-2.01 1.34 -1.02 0.68 0 0 Z " fill="#2D2A2A" transform="translate(160,366)"/>
<path d="M0 0 C1.40907283 2.81814566 0.50872691 4.17277204 -0.4375 7.125 C-0.72496094 8.03507813 -1.01242188 8.94515625 -1.30859375 9.8828125 C-1.53675781 10.58148438 -1.76492187 11.28015625 -2 12 C-2.33 12 -2.66 12 -3 12 C-3.36923077 4.61538462 -3.36923077 4.61538462 -1.5 1.5 C-1.005 1.005 -0.51 0.51 0 0 Z " fill="#666361" transform="translate(177,150)"/>
<path d="M0 0 C0.33 0 0.66 0 1 0 C1.33 4.62 1.66 9.24 2 14 C1.01 14 0.02 14 -1 14 C-0.67 9.38 -0.34 4.76 0 0 Z " fill="#564E59" transform="translate(110,494)"/>
<path d="M0 0 C2.46800047 1.15173355 4.04783565 2.04783565 6 4 C2.37 3.67 -1.26 3.34 -5 3 C-5 2.67 -5 2.34 -5 2 C-3.35 2 -1.7 2 0 2 C0 1.34 0 0.68 0 0 Z " fill="#141115" transform="translate(470,139)"/>
<path d="M0 0 C0 0.33 0 0.66 0 1 C-4.1196377 2.29243536 -7.66831683 3.26252625 -12 3 C-8.2391768 -0.7608232 -5.0273023 -0.25136512 0 0 Z " fill="#D4CFD1" transform="translate(128,731)"/>
</svg>
