<?xml version="1.0" encoding="UTF-8"?>
<svg version="1.1" xmlns="http://www.w3.org/2000/svg" width="540" height="540">
<path d="M0 0 C1.32 0 2.64 0 4 0 C4 0.99 4 1.98 4 3 C5.0828125 3.43119141 5.0828125 3.43119141 6.1875 3.87109375 C7.96200763 4.5833614 9.73333722 5.30364744 11.5 6.03515625 C12.325 6.37417969 13.15 6.71320312 14 7.0625 C14.825 7.40410156 15.65 7.74570312 16.5 8.09765625 C22.17455048 10.14581432 27.83974919 10.29080887 33.8125 10.5625 C34.69615234 10.60568359 35.57980469 10.64886719 36.49023438 10.69335938 C38.65999623 10.79891536 40.8299791 10.89991071 43 11 C43 10.34 43 9.68 43 9 C44.65 9 46.3 9 48 9 C48 9.99 48 10.98 48 12 C49.60875 11.9071875 49.60875 11.9071875 51.25 11.8125 C62.18529723 11.88937379 75.13426321 16.13426321 83 24 C87.25025571 23.26719729 91.32782578 22.1853754 95.484375 21.0390625 C118.23570783 14.88539648 138.82789326 15.91414835 161.7578125 20.55859375 C167.65785859 21.52860133 170.24045445 20.20540823 175 17 C175.66 17 176.32 17 177 17 C177 16.34 177 15.68 177 15 C177.969375 14.87625 178.93875 14.7525 179.9375 14.625 C180.948125 14.41875 181.95875 14.2125 183 14 C183.33 13.34 183.66 12.68 184 12 C184.99 12 185.98 12 187 12 C187 12.66 187 13.32 187 14 C187.66 13.67 188.32 13.34 189 13 C191.12318064 12.9027114 193.24959691 12.87022381 195.375 12.875 C196.51710938 12.87242188 197.65921875 12.86984375 198.8359375 12.8671875 C201.43236152 12.9761732 203.53624883 13.23538757 206 14 C206 13.34 206 12.68 206 12 C207.98 12 209.96 12 212 12 C212 12.66 212 13.32 212 14 C216.05213676 14.1952744 220.10466378 14.37344535 224.15820312 14.53710938 C225.53144534 14.59480863 226.90451365 14.65684291 228.27734375 14.72363281 C237.16973077 15.15265148 245.28576941 14.79825082 254 13 C255.99885001 12.65983866 257.99859018 12.32476122 260 12 C260 11.01 260 10.02 260 9 C260.99 9 261.98 9 263 9 C263 9.66 263 10.32 263 11 C263.94875 10.34 264.8975 9.68 265.875 9 C269 7 269 7 271 7 C278.07980708 36.69394812 271.85997604 65.87849803 257.06567383 92.0715332 C255.43969021 95.01394892 254.06552309 97.80343072 253 101 C251.68 101 250.36 101 249 101 C248.74347656 101.58910156 248.48695313 102.17820312 248.22265625 102.78515625 C246.89573089 105.18888366 245.46641736 106.60342648 243.4375 108.4375 C240.61940633 111.15035366 239.12356529 112.9223453 239 117 C239.66 117 240.32 117 241 117 C241 117.99 241 118.98 241 120 C240.34 120 239.68 120 239 120 C239 121.65 239 123.3 239 125 C239.66 125.33 240.32 125.66 241 126 C241 126.99 241 127.98 241 129 C240.01 129 239.02 129 238 129 C237.92523438 129.63421875 237.85046875 130.2684375 237.7734375 130.921875 C234.96170661 150.87965115 228.30776547 169.66177134 215 185 C214.30261719 185.91652344 213.60523438 186.83304688 212.88671875 187.77734375 C212.26410156 188.51082031 211.64148438 189.24429688 211 190 C210.34 190 209.68 190 209 190 C209 190.66 209 191.32 209 192 C207.4609375 193.33203125 207.4609375 193.33203125 205.375 194.8125 C202.69596143 196.74577783 200.11894196 198.70823359 197.625 200.875 C195 203 195 203 193 203 C193 203.66 193 204.32 193 205 C190.10779823 206.44610089 187.21524846 207.89140709 184.3203125 209.33203125 C182.24404089 210.3750524 180.17495326 211.43264646 178.1171875 212.51171875 C177.25351562 212.96160156 176.38984375 213.41148437 175.5 213.875 C174.7265625 214.28492188 173.953125 214.69484375 173.15625 215.1171875 C171 216 171 216 167 216 C167.495 216.61875 167.99 217.2375 168.5 217.875 C170 220 170 220 170 222 C170.60585938 222.01417969 171.21171875 222.02835938 171.8359375 222.04296875 C184.16924963 222.74501883 192.60212829 229.50996691 202 237 C202.84256348 237.66999023 202.84256348 237.66999023 203.70214844 238.35351562 C211.00487781 244.19074532 211.00487781 244.19074532 214 247 C214 247.66 214 248.32 214 249 C214.53625 249.20625 215.0725 249.4125 215.625 249.625 C218.91978009 251.53250426 221.59363628 254.04819384 224 257 C224 257.66 224 258.32 224 259 C224.99 259.33 225.98 259.66 227 260 C231.69503432 265.03039392 235.73035315 270.55322748 239.828125 276.07421875 C241.61575075 278.48236926 243.42740272 280.86841025 245.25 283.25 C253 293.59776536 253 293.59776536 253 297 C254.32 297 255.64 297 257 297 C257.16495972 298.09368896 257.16495972 298.09368896 257.33325195 299.20947266 C258.03904533 302.16341563 259.05367027 304.08889149 260.66796875 306.6484375 C261.20728027 307.51823242 261.7465918 308.38802734 262.30224609 309.28417969 C262.86250488 310.18040039 263.42276367 311.07662109 264 312 C266.13229914 315.52541859 268.22683727 319.07184108 270.3125 322.625 C270.84939453 323.51445312 271.38628906 324.40390625 271.93945312 325.3203125 C275.06612932 330.68258189 276.73157319 334.77539995 277 341 C277.66 341 278.32 341 279 341 C279 343.64 279 346.28 279 349 C279.88171875 349.12503906 280.7634375 349.25007813 281.671875 349.37890625 C290.52529717 351.0311294 298.50493708 355.68634546 306.3125 360 C307.06499023 360.41499756 307.81748047 360.82999512 308.59277344 361.25756836 C312.16299397 363.26650824 315.5232754 365.34086595 318.79296875 367.8125 C321.90374121 370.37566195 321.90374121 370.37566195 326 370 C326.04125 370.66 326.0825 371.32 326.125 372 C327.01123722 375.03852762 327.93686425 376.38023558 329.875 378.8125 C336.20093348 387.0088417 337.01243514 394.70501348 336 405 C334.46837567 411.79279719 331.68564491 417.07023664 327.171875 422.34375 C325.71120504 424.07001272 325.71120504 424.07001272 326 427 C325.26910156 427.0928125 324.53820312 427.185625 323.78515625 427.28125 C320.54160224 428.1182962 319.00537507 429.36785991 316.4375 431.5 C304.08364392 440.79464679 288.846312 445.84203089 274.0546875 449.78515625 C270.33801722 451.26326937 267.54188702 453.47111531 264.5 456 C260.56744751 459.26934292 257.08231859 461.83770839 252 463 C247.11396274 461.16773603 244.16916437 456.97506872 241 453 C237.29750292 453.64165055 234.7858583 455.29774139 231.6875 457.375 C223.88507158 462.39452793 217.54924799 465.61721135 208 464 C204.99302467 462.71476055 202.30072249 461.2186581 199.515625 459.5078125 C197.32754725 458.19632491 195.40223563 457.35988074 193 456.5625 C189.59472249 454.78891797 189.06910329 453.56110106 187.87109375 450.01171875 C186.79257971 447.52098005 185.3029782 445.76650673 183.5625 443.6875 C179.87356251 439.12691484 177.85369908 434.52595604 176 429 C175.64421875 428.10152344 175.2884375 427.20304687 174.921875 426.27734375 C173.73273453 422.04984861 173.57632348 418.12383694 173.5625 413.75 C173.55863281 412.91041748 173.55476563 412.07083496 173.55078125 411.20581055 C173.67441819 404.55324155 175.05808153 399.47645101 179 394 C179.66 394 180.32 394 181 394 C181.33 393.01 181.66 392.02 182 391 C183.51538086 389.88085938 183.51538086 389.88085938 185.46484375 388.84375 C186.53520874 388.2712854 186.53520874 388.2712854 187.62719727 387.68725586 C188.38959717 387.29546143 189.15199707 386.90366699 189.9375 386.5 C190.70570068 386.0985376 191.47390137 385.6970752 192.26538086 385.28344727 C197.67878138 382.51723092 203.03010295 380.2761205 209 379 C208.46890625 378.55269531 207.9378125 378.10539062 207.390625 377.64453125 C206.68421875 377.03996094 205.9778125 376.43539063 205.25 375.8125 C204.20585938 374.92498047 204.20585938 374.92498047 203.140625 374.01953125 C198.30512434 369.45757169 196.50048533 366.37932756 195.75 359.6875 C195.52570313 357.80611328 195.52570313 357.80611328 195.296875 355.88671875 C195.19890625 354.93410156 195.1009375 353.98148437 195 353 C191.37 352.34 187.74 351.68 184 351 C181.85164036 353.24743206 181.85164036 353.24743206 180 356 C180.12563582 358.26424351 180.12563582 358.26424351 181 360 C179.02 360.66 177.04 361.32 175 362 C174.67 363.65 174.34 365.3 174 367 C173.360625 366.814375 172.72125 366.62875 172.0625 366.4375 C171.381875 366.293125 170.70125 366.14875 170 366 C168.27980026 367.72019974 168.49881878 370.14910676 168.1875 372.5 C165.88099156 387.93845433 161.95688117 403.37923222 155.8203125 417.765625 C154.77023974 420.22912346 154.77023974 420.22912346 155 424 C154.01 424.33 153.02 424.66 152 425 C150.092364 427.63122207 148.40182062 430.31297548 146.76171875 433.1171875 C139.42076898 445.06949445 124.82848157 454.58710029 111.33984375 458.48046875 C100.73706307 460.83467548 90.71511383 461.82384916 80 460 C79.67 460.66 79.34 461.32 79 462 C78.01 461.67 77.02 461.34 76 461 C75.67 460.34 75.34 459.68 75 459 C73.12526598 458.31827854 71.25041754 457.63687011 69.375 456.95703125 C59.19479787 452.85481164 50.57683588 445.75368567 45.625 435.8125 C39.6088812 420.16507175 39.97374776 404.98518003 44 389 C43.52280518 389.32685791 43.04561035 389.65371582 42.55395508 389.99047852 C17.52627787 407.07104977 -9.9027563 421.00427784 -41.26171875 416.53515625 C-55.94251144 413.29194845 -68.99904463 405.06687021 -77.375 392.4375 C-85.91329784 376.67838648 -90.04838017 357.43985877 -85 340 C-84.731875 338.96875 -84.46375 337.9375 -84.1875 336.875 C-81.12573092 325.85263132 -75.53623616 316.74136397 -67 309 C-64.7578125 308.25 -64.7578125 308.25 -63 308 C-63 307.34 -63 306.68 -63 306 C-59.53846154 303 -59.53846154 303 -57 303 C-56.67 302.01 -56.34 301.02 -56 300 C-55.0925 299.855625 -54.185 299.71125 -53.25 299.5625 C-50.78523044 299.13590527 -48.41152893 298.64925779 -46 298 C-46 298.66 -46 299.32 -46 300 C-44.35 300 -42.7 300 -41 300 C-40.505 303.465 -40.505 303.465 -40 307 C-39.071875 307.309375 -38.14375 307.61875 -37.1875 307.9375 C-35.125 308.625 -33.0625 309.3125 -31 310 C-30.01 310 -29.02 310 -28 310 C-28 311.32 -28 312.64 -28 314 C-27.30261719 314.12246094 -26.60523438 314.24492187 -25.88671875 314.37109375 C-22.76033577 315.05221372 -19.835045 316.01493472 -16.8125 317.0625 C-12.98647126 318.49594778 -12.98647126 318.49594778 -9 319 C-9.05800781 318.39414062 -9.11601562 317.78828125 -9.17578125 317.1640625 C-9.77467713 306.04171039 -4.10849731 298.11754247 3 290 C4.66294644 288.32962139 6.33043982 286.66376812 8 285 C9.08078357 283.90571873 10.16029815 282.81018317 11.23876953 281.71362305 C14.49095838 278.40758111 17.75264769 275.11108369 21.01757812 271.81762695 C22.41452975 270.40562476 23.80877244 268.990937 25.20019531 267.57348633 C32.42636061 260.21613887 39.38712774 253.15689799 48.05419922 247.49145508 C50.28908786 246.06701211 50.28908786 246.06701211 51 243 C52.98653363 242.29421776 54.99042936 241.63723644 57 241 C59.79382933 239.61256427 62.48617787 238.05855083 65.1875 236.5 C65.89841797 236.09652344 66.60933594 235.69304687 67.34179688 235.27734375 C73.41390952 232.28063541 73.41390952 232.28063541 77 227 C77.66 227 78.32 227 79 227 C79.33 227.66 79.66 228.32 80 229 C83.62793998 227.13433512 83.62793998 227.13433512 86 224 C86.99 223.34 87.98 222.68 89 222 C87.79085937 221.57589844 86.58171875 221.15179688 85.3359375 220.71484375 C59.36954001 211.4787959 40.8886058 200.18774419 28.6640625 174.734375 C27.55214809 172.3438203 26.71281646 170.10789794 25.8984375 167.578125 C25.28435298 164.85157491 25.28435298 164.85157491 23 164 C23 163.01 23 162.02 23 161 C23.66 161 24.32 161 25 161 C25.37125 160.195625 25.37125 160.195625 25.75 159.375 C27 157 27 157 29.0625 154.3125 C31.22665931 150.6124857 31.5781096 148.05338769 31.82421875 143.85546875 C32 142 32 142 33 141 C34.13537985 126.20150913 32.34808023 109.31760799 22.50732422 97.83056641 C17.74676119 92.16126936 14.8272804 85.9201964 11.8125 79.1875 C11.33095459 78.11757812 10.84940918 77.04765625 10.35327148 75.9453125 C7 68.33400618 7 68.33400618 7 66 C6.01 66 5.02 66 4 66 C4.20367187 65.49984375 4.40734375 64.9996875 4.6171875 64.484375 C5.17575872 60.85936179 4.09820866 57.71745867 3.125 54.25 C0.71879173 45.52127207 -0.19441357 37.2269891 -0.1875 28.1875 C-0.18814453 27.31254883 -0.18878906 26.43759766 -0.18945312 25.53613281 C-0.13774113 19.19671216 0.41737031 13.1609513 2 7 C1.01 6.505 1.01 6.505 0 6 C0 4.02 0 2.04 0 0 Z M265 371 C263.90149053 372.16716631 262.80336918 373.33469994 261.70703125 374.50390625 C258.81888775 377.03516245 255.39617167 378.68902486 252.01171875 380.47265625 C251.34785156 380.97667969 250.68398438 381.48070312 250 382 C250 383.32 250 384.64 250 386 C249.51015625 385.47792969 249.0203125 384.95585937 248.515625 384.41796875 C244.80405151 382.32588617 241.69843589 383.40212741 237.75 384.3125 C237.00492187 384.46912109 236.25984375 384.62574219 235.4921875 384.78710938 C233.65793829 385.17512363 231.82842676 385.58541486 230 386 C230.92425781 387.38638672 230.92425781 387.38638672 231.8671875 388.80078125 C233.99609375 391.99414062 233.99609375 391.99414062 236.125 395.1875 C240.10153462 399.71006624 245.25126163 400.67421468 251.07324219 401.18017578 C261.54616588 401.81072082 269.79101937 401.50151095 278.5 395.1875 C280.53772833 392.21581286 280.72724062 389.54587192 281 386 C280.34 386 279.68 386 279 386 C279.103125 385.278125 279.20625 384.55625 279.3125 383.8125 C278.86197264 379.75775376 277.06986192 378.61264845 274 376 C269.93118523 372.42730658 269.93118523 372.42730658 265 371 Z " fill="#100E0F" transform="translate(142,50)"/>
<path d="M0 0 C1.06868421 25.44062143 -3.2709307 53.08458894 -19 74 C-19.66 74 -20.32 74 -21 74 C-21.22816406 74.71027344 -21.45632813 75.42054688 -21.69140625 76.15234375 C-23.27597428 79.600553 -25.33147976 81.81106307 -27.9375 84.5625 C-34.53042512 91.56323492 -36.93598497 94.99518133 -37.23950195 104.72167969 C-37.55448115 114.01303918 -39.25579264 122.09112681 -42 131 C-42.2990625 132.09957031 -42.598125 133.19914063 -42.90625 134.33203125 C-46.32137818 146.50578557 -51.66820473 157.42729905 -60 167 C-60 163.68788267 -59.50806626 162.9160574 -57.8125 160.1875 C-52.62674845 151.06116322 -49.87725872 141.25371808 -47.6875 131.0625 C-47.51597412 130.2698877 -47.34444824 129.47727539 -47.16772461 128.66064453 C-46.22655719 124.0141515 -45.82961151 119.73932436 -46 115 C-46.21914063 115.969375 -46.43828125 116.93875 -46.6640625 117.9375 C-53.19441744 145.91265245 -64.98505555 171.41546404 -89.5 187.875 C-97.24212629 192.53774743 -105.43915076 194.94687316 -114.125 197.1875 C-114.76977295 197.35467529 -115.4145459 197.52185059 -116.07885742 197.6940918 C-125.6331403 200.04124571 -135.16429636 200.18640668 -144.95410156 200.18530273 C-147.09981587 200.18747451 -149.24500214 200.20564554 -151.390625 200.22460938 C-163.80911461 200.27697344 -176.22971356 199.5313543 -188.0625 195.4375 C-189.18047974 195.05875732 -189.18047974 195.05875732 -190.32104492 194.67236328 C-207.3799674 188.52438077 -221.22648251 176.27112488 -229.14697266 159.97387695 C-233.78634982 149.97137978 -233.78634982 149.97137978 -234 146 C-232.78515625 142.96875 -232.78515625 142.96875 -231.0625 139.5 C-228.15356643 133.02235777 -227.44430977 127.19828455 -227.5 120.125 C-227.50652588 119.25810547 -227.51305176 118.39121094 -227.51977539 117.49804688 C-227.63981287 113.35576346 -228.03304452 109.50582732 -229.01171875 105.4765625 C-233.98078476 84.98310712 -227.23720037 64.4331441 -217.125 46.6875 C-204.37150505 26.68465002 -185.0187195 14.82157078 -162.19287109 9.45654297 C-155.51673657 8.06661071 -148.79646383 7.43450528 -142 7 C-140.06060547 6.85691406 -140.06060547 6.85691406 -138.08203125 6.7109375 C-126.28418052 6.25393615 -115.35153323 9.04910364 -104 12 C-104 13.65 -104 15.3 -104 17 C-103.32517578 16.43732422 -103.32517578 16.43732422 -102.63671875 15.86328125 C-88.62486841 4.71557667 -72.45404096 2.27151271 -55.00927734 4.22265625 C-53.99341553 4.35414062 -53.99341553 4.35414062 -52.95703125 4.48828125 C-46.63773871 5.24336517 -40.29234608 5.2973541 -33.93603516 5.35009766 C-32.48567618 5.3666195 -31.03539737 5.39386048 -29.58544922 5.43212891 C-20.23507537 5.6761255 -13.10033393 4.94112624 -4.45019531 1.08056641 C-2 0 -2 0 0 0 Z " fill="#403939" transform="translate(409,66)"/>
<path d="M0 0 C0.495 1.485 0.495 1.485 1 3 C0.67 3.66 0.34 4.32 0 5 C0.556875 4.96519531 1.11375 4.93039062 1.6875 4.89453125 C2.8321875 4.85392578 2.8321875 4.85392578 4 4.8125 C5.11375 4.76029297 5.11375 4.76029297 6.25 4.70703125 C13.18913129 5.44628529 18.46455508 8.64027617 23.75 13 C24.65105469 13.7273938 24.65105469 13.7273938 25.5703125 14.46948242 C31.61086527 19.39893668 37.37618762 24.60226172 43 30 C43.84328857 30.80244141 43.84328857 30.80244141 44.70361328 31.62109375 C52.75227516 39.31652978 60.02872305 47.29030823 66.67773438 56.22460938 C68.00659409 58.0088538 69.3537441 59.77811816 70.703125 61.546875 C78.08143244 71.31379566 84.60514702 81.57014103 91 92 C91.66273926 93.07773682 91.66273926 93.07773682 92.33886719 94.17724609 C94.94279877 98.42330565 97.49059761 102.69740943 100 107 C100.47566406 107.78761719 100.95132813 108.57523437 101.44140625 109.38671875 C105.19041746 116.03566197 104.71733529 121.91389401 102.8125 129.0625 C101.2189587 133.88801238 98.96513968 137.89306026 96 142 C95.236875 143.0725 94.47375 144.145 93.6875 145.25 C87.97117899 151.09925871 80.27381148 153.62186442 72.203125 154.3359375 C63.70309155 154.41992993 56.72665822 153.96335057 49 150 C48.20335937 149.62230469 47.40671875 149.24460937 46.5859375 148.85546875 C44.16387034 147.43903018 42.65513671 146.27131533 41 144 C40.39868375 140.98872097 40.36784275 138.12908627 40.30859375 135.05859375 C38.91552775 105.23192108 20.6024628 68.8727516 4.3125 44.3125 C-2.5084318 33.77830392 -5.96874823 24.593727 -5 12 C-5 10.68 -5 9.36 -5 8 C-8.34680684 11.34680684 -9.32409163 15.15825779 -9.5 19.8125 C-9.2916564 30.8547109 -3.46304377 41.3454676 1.48828125 50.94921875 C10.38287851 68.89929745 16.063129 89.51615 10.1875 109.3125 C8.08861691 115.33573154 5.64012292 120.63911077 1.3125 125.375 C0.68988281 126.06335938 0.06726563 126.75171875 -0.57421875 127.4609375 C-1.27998047 128.22277344 -1.27998047 128.22277344 -2 129 C-5.28509647 127.90496784 -5.70694377 127.33769988 -7.6875 124.6875 C-11.79444365 119.81926923 -15.6348822 117.4228192 -22.015625 116.62109375 C-30.12578663 116.32320867 -38.52043696 117.41805933 -45.046875 122.63671875 C-48.0186478 124.71101616 -50.09266722 124.16286769 -53.55078125 123.6484375 C-58.9857624 122.20951107 -64.32697779 119.31984373 -68 115 C-68 114.34 -68 113.68 -68 113 C-70.56376764 114.26832688 -73.12602212 115.53956365 -75.6875 116.8125 C-76.40873047 117.16892578 -77.12996094 117.52535156 -77.87304688 117.89257812 C-80.95563638 119.426835 -83.95073476 120.97001535 -86.89453125 122.76171875 C-89 124 -89 124 -91 124 C-91.25523437 123.11248047 -91.25523437 123.11248047 -91.515625 122.20703125 C-93.72267317 115.01064548 -95.96121312 110.90949921 -102.75 107.25 C-107.25668549 105.11349725 -111.05510295 104.35962888 -116 104 C-119.23920808 100.76079192 -118.23365703 91.6779406 -118.25 87.3125 C-118.24617782 79.78052101 -117.34172906 73.19446879 -115 66 C-114.64808594 64.79730469 -114.29617187 63.59460938 -113.93359375 62.35546875 C-106.97572541 39.22740828 -88.810441 15.52667322 -68 3 C-65.625 3.25 -65.625 3.25 -64 4 C-64 8.67590167 -64.88002198 9.69649386 -68 13 C-68.66 13 -69.32 13 -70 13 C-70.24234375 13.5259375 -70.4846875 14.051875 -70.734375 14.59375 C-72.03877296 17.07371649 -73.52522013 19.38542456 -75.07202148 21.7199707 C-83.25320533 34.08246012 -89.15723636 44.96820437 -89 60 C-88.6596875 59.030625 -88.319375 58.06125 -87.96875 57.0625 C-82.77570147 42.57269031 -76.71706527 29.06582958 -67 17 C-66.32839844 16.10667969 -65.65679687 15.21335937 -64.96484375 14.29296875 C-63.96130859 13.03419922 -63.96130859 13.03419922 -62.9375 11.75 C-62.34839844 11.00234375 -61.75929687 10.2546875 -61.15234375 9.484375 C-59 8 -59 8 -55.78125 8.24609375 C-54.5334375 8.49488281 -53.285625 8.74367188 -52 9 C-36.13046318 10.28761287 -21.83666511 7.23015435 -7.3125 0.8125 C-4.74398721 -0.08995044 -2.70278046 -0.1544446 0 0 Z " fill="#3F3838" transform="translate(305,272)"/>
<path d="M0 0 C2.69435995 0.99630673 3.76292735 1.92660628 5.6171875 4.0859375 C17.77107881 16.81116558 36.76448123 20.71723144 53.4296875 23.8984375 C54.39003906 24.094375 55.35039062 24.2903125 56.33984375 24.4921875 C60.64753575 25.05855914 64.90191777 25.08269607 69.2421875 25.0859375 C70.51932617 25.10430664 70.51932617 25.10430664 71.82226562 25.12304688 C76.88637322 25.13461757 81.36186854 24.57107398 86.27075195 23.35913086 C89.72200065 22.62267193 93.09998123 22.5687804 96.6171875 22.5859375 C97.62555664 22.56176758 97.62555664 22.56176758 98.65429688 22.53710938 C104.24069884 22.53166984 108.18565937 23.85757241 112.328125 27.625 C115.6284701 31.86830085 117.46488915 35.27793341 117.08203125 40.75 C116.06539565 44.09820109 113.95516773 45.76939021 111.3671875 48.0234375 C108.58481127 50.71605966 106.87593202 53.82358405 104.984375 57.17578125 C104.47132813 58.07425781 103.95828125 58.97273438 103.4296875 59.8984375 C103.09324219 60.52991699 102.75679687 61.16139648 102.41015625 61.81201172 C99.33969316 67.22995094 96.04909383 70.08569594 90.6796875 73.1484375 C89.90455811 73.6031543 89.12942871 74.05787109 88.33081055 74.52636719 C36.83172011 104.09243025 36.83172011 104.09243025 11.82421875 98.0234375 C10.14392578 97.4665625 10.14392578 97.4665625 8.4296875 96.8984375 C7.45386719 96.57746094 6.47804687 96.25648438 5.47265625 95.92578125 C-6.75487279 91.25891312 -14.49361693 83.37321289 -20.5703125 71.8984375 C-21.07820313 70.980625 -21.58609375 70.0628125 -22.109375 69.1171875 C-27.71597292 57.21491259 -27.85060261 41.63926561 -23.8203125 29.19458008 C-20.50874005 20.43594527 -11.21661949 -0.44320989 0 0 Z " fill="#413A39" transform="translate(91.5703125,359.1015625)"/>
<path d="M0 0 C1.08667969 -0.02513672 1.08667969 -0.02513672 2.1953125 -0.05078125 C9.0931954 0.88435448 14.33418775 3.9483489 19.625 8.3125 C20.52605469 9.0398938 20.52605469 9.0398938 21.4453125 9.78198242 C27.48586527 14.71143668 33.25118762 19.91476172 38.875 25.3125 C39.43719238 25.84746094 39.99938477 26.38242187 40.57861328 26.93359375 C48.62727516 34.62902978 55.90372305 42.60280823 62.55273438 51.53710938 C63.88159409 53.3213538 65.2287441 55.09061816 66.578125 56.859375 C73.95643244 66.62629566 80.48014702 76.88264103 86.875 87.3125 C87.31682617 88.03099121 87.75865234 88.74948242 88.21386719 89.48974609 C90.81779877 93.73580565 93.36559761 98.00990943 95.875 102.3125 C96.35066406 103.10011719 96.82632813 103.88773437 97.31640625 104.69921875 C101.06541746 111.34816197 100.59233529 117.22639401 98.6875 124.375 C97.0939587 129.20051238 94.84013968 133.20556026 91.875 137.3125 C91.111875 138.385 90.34875 139.4575 89.5625 140.5625 C83.84617899 146.41175871 76.14881148 148.93436442 68.078125 149.6484375 C59.57809155 149.73242993 52.60165822 149.27585057 44.875 145.3125 C44.07835937 144.93480469 43.28171875 144.55710937 42.4609375 144.16796875 C40.03887034 142.75153018 38.53013671 141.58381533 36.875 139.3125 C36.27368375 136.30122097 36.24284275 133.44158627 36.18359375 130.37109375 C34.79052775 100.54442108 16.4774628 64.1852516 0.1875 39.625 C-6.23536973 29.70556801 -11.26710034 19.38464686 -9.125 7.3125 C-6.81108082 2.80644686 -5.26974715 0.02754223 0 0 Z " fill="#403938" transform="translate(309.125,276.6875)"/>
<path d="M0 0 C18.21860898 8.92678655 26.94488127 28.21915798 33.14038086 46.30883789 C34.87098891 51.78808938 34.9530541 56.76515816 34.95703125 62.48828125 C34.96927734 63.39642578 34.98152344 64.30457031 34.99414062 65.24023438 C35.01676293 75.77468584 33.42142371 84.59270695 25.8046875 92.28515625 C15.91648961 101.19742399 4.77577873 101.14448838 -8.04443359 100.52294922 C-12.86164189 100.03337366 -16.3702696 98.0843744 -20.23046875 95.30078125 C-21.00519531 94.80449219 -21.77992188 94.30820312 -22.578125 93.796875 C-30.76528031 88.12463885 -36.63645299 79.33678712 -38.84375 69.59375 C-41.48166803 47.13147829 -37.2305218 26.33566584 -23.23046875 8.30078125 C-16.66708868 0.71228908 -10.25737099 -3.21553311 0 0 Z " fill="#FDFDFD" transform="translate(231.23046875,402.69921875)"/>
<path d="M0 0 C-1.55301005 26.07422134 -8.88967191 52.65196057 -28.88671875 70.703125 C-33.11023155 74.0379594 -33.11023155 74.0379594 -36.2890625 73.90234375 C-39.88941663 72.70395498 -42.67845492 70.68157564 -45.6875 68.4375 C-46.60897827 67.76195068 -46.60897827 67.76195068 -47.54907227 67.07275391 C-49.37463206 65.72625184 -51.18870207 64.36560455 -53 63 C-53.95390625 62.28714844 -54.9078125 61.57429688 -55.890625 60.83984375 C-65.03668176 53.78391346 -72.0462656 46.52538649 -74.6875 35 C-73.54501609 30.01461564 -70.34838355 26.75763043 -67 23 C-66.32453125 22.21882813 -65.6490625 21.43765625 -64.953125 20.6328125 C-50.50056182 4.96707796 -29.40965686 3.34062616 -9.41333008 1.32543945 C-6.00832085 0.86627129 -3.53410809 0 0 0 Z " fill="#D1C7DC" transform="translate(402,86)"/>
<path d="M0 0 C1.00740234 0.65548828 1.00740234 0.65548828 2.03515625 1.32421875 C2.85113281 1.81019531 3.66710937 2.29617188 4.5078125 2.796875 C6.23742764 3.85864478 7.96659304 4.92114754 9.6953125 5.984375 C14.04986145 8.47788133 17.96540138 8.50729241 22.84765625 8.51171875 C23.89663086 8.53008789 23.89663086 8.53008789 24.96679688 8.54882812 C29.3807728 8.56121534 32.93647209 7.95211058 37.03515625 6.32421875 C34.72515625 5.66421875 32.41515625 5.00421875 30.03515625 4.32421875 C32.83308906 1.25981614 34.8776739 0.42836241 39.07421875 0.05078125 C46.93282723 -0.17179372 52.87829874 0.10853691 59.03515625 5.32421875 C65.55530608 12.22143749 65.48129028 19.79305563 65.30859375 28.953125 C64.99392379 36.00827474 63.12933421 42.62643418 61.03515625 49.32421875 C60.7937793 50.11376953 60.55240234 50.90332031 60.30371094 51.71679688 C54.05854512 71.81130526 45.41671326 90.84571615 26.59765625 102.01953125 C23.41717529 103.63886149 20.52813695 104.62562261 17.03515625 105.32421875 C17.92203125 104.37546875 18.80890625 103.42671875 19.72265625 102.44921875 C29.39170404 91.15338804 29.99045975 78.33869784 29.30908203 64.08837891 C28.58482407 56.7799577 25.91862793 50.02390252 23.03515625 43.32421875 C22.54402344 42.17953125 22.05289063 41.03484375 21.546875 39.85546875 C15.72714138 27.43167084 6.15257645 14.55299977 -6.96484375 9.32421875 C-9.69321326 8.71589676 -12.15953143 8.47723579 -14.96484375 8.32421875 C-11.84861001 4.66603132 -5.13324371 -1.76550927 0 0 Z " fill="#413A39" transform="translate(235.96484375,393.67578125)"/>
<path d="M0 0 C6.02613471 0.51652583 10.22766882 3.98002954 14.3125 8.1875 C23.38711738 19.03277442 28.41425025 32.505415 32 46 C32.17740723 46.61359375 32.35481445 47.2271875 32.53759766 47.859375 C33.54936271 52.54319547 33.31448663 57.41519578 33.375 62.1875 C33.43107422 63.83588867 33.43107422 63.83588867 33.48828125 65.51757812 C33.57773622 73.85179992 31.81834412 79.17862609 26.66259766 85.6887207 C24.68429799 87.70018578 22.78041456 88.8904418 19.96875 89.28515625 C11.32578554 88.90474408 3.49841554 83.3970071 -2.2734375 77.2421875 C-13.7120875 62.38747008 -16.95133581 47.48802568 -15 29 C-13.00766173 18.78129905 -7.37927465 7.37927465 0 0 Z " fill="#FCFCFC" transform="translate(81,366)"/>
<path d="M0 0 C0 3.79676808 -0.9647453 4.38697275 -3.4375 7.1875 C-19.06855634 26.17202765 -25.58694261 48.39746362 -26.5625 72.5625 C-26.60568359 73.57119141 -26.64886719 74.57988281 -26.69335938 75.61914062 C-26.79829618 78.07932575 -26.90045701 80.53959175 -27 83 C-52.92295759 85.79405233 -52.92295759 85.79405233 -64 81 C-67.10097653 76.95753802 -67.53253503 74.05908276 -67 69 C-64.70808951 63.50580342 -61.21444496 59.07843113 -57.5625 54.4375 C-56.93923828 53.6424707 -56.31597656 52.84744141 -55.67382812 52.02832031 C-50.57894521 45.59881649 -45.25119207 39.47877396 -39.54052734 33.59179688 C-37.92564948 31.92317506 -36.33276024 30.23498082 -34.73828125 28.546875 C-24.2313114 17.58340898 -12.34482963 8.77174986 0 0 Z " fill="#352C31" transform="translate(209,293)"/>
<path d="M0 0 C1.37341509 4.12024528 -0.18667639 6.60302503 -1.875 10.375 C-2.34993896 11.44258545 -2.34993896 11.44258545 -2.83447266 12.53173828 C-11.50465357 31.31922756 -26.52075727 48.65331479 -46.18847656 56.08374023 C-60.98740899 61.29985086 -75.33843651 63.18706363 -90.95410156 63.18530273 C-93.09981587 63.18747451 -95.24500214 63.20564554 -97.390625 63.22460938 C-109.80911461 63.27697344 -122.22971356 62.5313543 -134.0625 58.4375 C-134.80781982 58.18500488 -135.55313965 57.93250977 -136.32104492 57.67236328 C-148.50984896 53.27955628 -159.74894777 45.77299188 -167 35 C-163.54873332 36.27981945 -160.63371936 37.79518261 -157.5625 39.8125 C-141.26454199 49.7266881 -121.95146093 52.23364312 -103.25 52.25 C-102.55881073 52.25067474 -101.86762146 52.25134949 -101.15548706 52.25204468 C-67.99645 52.20070079 -38.93554766 42.25688194 -14.390625 19.5 C-8.94971561 13.81016011 -3.22094048 7.22961097 0 0 Z " fill="#342C31" transform="translate(355,203)"/>
<path d="M0 0 C1.13206891 10.64983344 -2.37148037 18.63833191 -8.875 27 C-14.50433388 33.04087787 -22.74614507 35.62363012 -30.796875 36.3359375 C-42.63815404 36.45294619 -51.53947309 34.56842152 -61 27 C-60.48035722 19.82188369 -58.04234123 17.14181871 -52.9375 12.36328125 C-37.89371991 0.26024009 -18.55664696 -2.39440606 0 0 Z " fill="#FCFCFC" transform="translate(408,390)"/>
<path d="M0 0 C0.33167377 10.88995554 0.10339704 20.24092396 -7 29 C-15.65015755 37.73614322 -23.24759217 39.2198282 -35.3125 39.375 C-43.02545879 39.40527296 -48.60175313 38.61378169 -55 34 C-55.77472656 33.50371094 -56.54945313 33.00742187 -57.34765625 32.49609375 C-64.90232064 27.26206082 -70.01807401 19.67207462 -73 11 C-73 10.01 -73 9.02 -73 8 C-70.6174145 8.92229116 -68.2632756 9.87787215 -65.9453125 10.953125 C-65.20023438 11.29859375 -64.45515625 11.6440625 -63.6875 12 C-62.99011719 12.33 -62.29273438 12.66 -61.57421875 13 C-49.46409832 17.70438669 -33.00082814 18.37857142 -20.8515625 13.546875 C-14.82760462 10.27908415 -9.4332743 6.15272896 -4 2 C-1 0 -1 0 0 0 Z " fill="#D1C6DC" transform="translate(266,464)"/>
<path d="M0 0 C0.33 0 0.66 0 1 0 C2.07924922 7.55474453 2.07924922 7.55474453 -0.34765625 10.8046875 C-1.57069942 11.92827441 -2.8101155 13.0342135 -4.0625 14.125 C-6.84487623 16.81762216 -8.55375548 19.92514655 -10.4453125 23.27734375 C-11.21488281 24.62505859 -11.21488281 24.62505859 -12 26 C-12.33644531 26.63147949 -12.67289062 27.26295898 -13.01953125 27.91357422 C-16.08999434 33.33151344 -19.38059367 36.18725844 -24.75 39.25 C-25.52512939 39.7047168 -26.30025879 40.15943359 -27.09887695 40.62792969 C-78.11367509 69.91595644 -78.11367509 69.91595644 -102.01953125 64.54638672 C-103.69247924 64.07408903 -105.34854144 63.5426829 -107 63 C-106.443125 62.5875 -105.88625 62.175 -105.3125 61.75 C-104.549375 61.1725 -103.78625 60.595 -103 60 C-102.195625 59.46375 -101.39125 58.9275 -100.5625 58.375 C-97.92084409 55.92663598 -97.38792965 54.60573477 -96.0625 51.375 C-94.86181641 49.09814453 -94.86181641 49.09814453 -93 47 C-90.14599609 46.28466797 -90.14599609 46.28466797 -86.7109375 45.9921875 C-78.98394306 45.10345653 -71.94882673 43.13338585 -64.5625 40.75 C-63.61230484 40.44687897 -63.61230484 40.44687897 -62.64291382 40.13763428 C-58.41796798 38.78980614 -54.20607618 37.40581465 -50 36 C-48.76540039 35.58959473 -48.76540039 35.58959473 -47.50585938 35.17089844 C-30.52035089 29.38436392 -9.62653831 18.20703951 -1.0234375 1.87109375 C-0.68570313 1.25363281 -0.34796875 0.63617188 0 0 Z " fill="#352D31" transform="translate(207,393)"/>
<path d="M0 0 C0.47526123 0.3707666 0.95052246 0.7415332 1.44018555 1.12353516 C6.3775582 4.90951418 11.46371764 8.20618356 16.8125 11.375 C37.85469786 24.0803353 37.85469786 24.0803353 41 31 C40.57347944 34.61780834 38.76329236 37.09070541 36.75 40.0625 C31.02288103 48.89963235 27.4337035 57.7705308 25 68 C8.44003772 55.08322942 1.71841057 31.16154504 -1 11 C-1.0858121 9.23075635 -1.13037577 7.4588153 -1.125 5.6875 C-1.12757813 4.82511719 -1.13015625 3.96273437 -1.1328125 3.07421875 C-1 1 -1 1 0 0 Z " fill="#D0C6DB" transform="translate(150,72)"/>
<path d="M0 0 C2.97169899 2.45488178 3.44202476 4.23883356 4 8 C4.78404344 19.27223114 3.36650202 29.23295645 0 40 C-0.24137695 40.78955078 -0.48275391 41.57910156 -0.73144531 42.39257812 C-6.97661113 62.48708651 -15.61844299 81.5214974 -34.4375 92.6953125 C-37.61798096 94.31464274 -40.5070193 95.30140386 -44 96 C-43.113125 95.05125 -42.22625 94.1025 -41.3125 93.125 C-34.90924332 85.46827562 -32.83658055 78.71940127 -31.75 68.9375 C-30.84017921 61.3175778 -29.6964104 57.17375795 -23.5390625 52.1796875 C-9.09864157 39.78314153 -1.50979017 18.49492961 0 0 Z " fill="#352D32" transform="translate(297,403)"/>
<path d="M0 0 C0.54527344 0.19335938 1.09054688 0.38671875 1.65234375 0.5859375 C2.40644531 0.84632812 3.16054687 1.10671875 3.9375 1.375 C5.03384766 1.75785156 5.03384766 1.75785156 6.15234375 2.1484375 C14.26346503 4.57398543 21.79048129 5.28203883 30.25 5.4375 C45.42055968 5.89172161 58.3775788 7.53982092 70 18 C68.4812711 22.01699301 66.04151643 23.66461219 62.5625 26.0625 C58.73059036 28.6496822 58.73059036 28.6496822 55.40234375 31.80859375 C54.93957031 32.20175781 54.47679687 32.59492187 54 33 C50.95362427 32.52726568 48.73421358 31.36422019 46.125 29.7734375 C38.9328563 25.67415101 31.0631409 23.10250578 23.3046875 20.28125 C15.87766947 17.47406176 9.85295383 14.40449267 4 9 C3.26523438 8.32662598 2.53046875 7.65325195 1.7734375 6.95947266 C0 5 0 5 -0.25 2.25 C-0.1675 1.5075 -0.085 0.765 0 0 Z " fill="#3F3837" transform="translate(147,61)"/>
<path d="M0 0 C-3.12178995 2.0811933 -4.60226194 2.40847825 -8.234375 2.89453125 C-9.79768555 3.11665283 -9.79768555 3.11665283 -11.39257812 3.34326172 C-12.50052734 3.49811035 -13.60847656 3.65295898 -14.75 3.8125 C-34.83172955 6.84310939 -50.93027347 12.2407454 -63.5625 29.1875 C-66.22784746 34.40231025 -64.89746991 39.39081303 -64 45 C-71.47890488 39.95173921 -76.40578826 31.15539414 -80 23 C-80.07237364 20.2498015 -79.56841893 18.69683251 -77.82421875 16.55859375 C-68.37957167 7.58266365 -55.49367974 4.69019315 -43.1015625 2.390625 C-41.29242747 2.05435455 -39.48922529 1.68644298 -37.6875 1.3125 C-25.29588586 -0.91799054 -12.53746902 -0.17635479 0 0 Z " fill="#050404" transform="translate(394,86)"/>
<path d="M0 0 C6.44786764 9.67180147 6.1328473 24.76018457 5 36 C3.2363343 44.61083841 0.30922677 52.81254429 -5.6875 59.375 C-6.31011719 60.06335938 -6.93273437 60.75171875 -7.57421875 61.4609375 C-8.04472656 61.96882813 -8.51523437 62.47671875 -9 63 C-12.28509647 61.90496784 -12.70694377 61.33769988 -14.6875 58.6875 C-17.95553124 54.68683707 -21.28973392 53.0302871 -26 51 C-25.34 50.484375 -24.68 49.96875 -24 49.4375 C-23.01 48.633125 -22.02 47.82875 -21 47 C-20.07574219 46.27103516 -20.07574219 46.27103516 -19.1328125 45.52734375 C-6.15623741 34.84817787 -2.1105274 21.99446533 -0.5065918 5.79101562 C-0.32875186 3.86148333 -0.16304858 1.93083844 0 0 Z " fill="#342C30" transform="translate(312,338)"/>
<path d="M0 0 C0.66 0 1.32 0 2 0 C2.63273935 18.49005002 -7.69383696 37.79138946 -20.01953125 51.046875 C-22.88681009 53.87456616 -25.47988444 56.00748176 -29 58 C-33.22527081 57.70117328 -35.90976714 55.98726223 -39.3125 53.5625 C-40.19550781 52.94503906 -41.07851563 52.32757813 -41.98828125 51.69140625 C-42.65214844 51.13324219 -43.31601562 50.57507813 -44 50 C-44 49.34 -44 48.68 -44 48 C-43.41734375 47.81566406 -42.8346875 47.63132813 -42.234375 47.44140625 C-22.20509806 40.35557714 -11.19546636 23.08778549 -2 5 C-1.3044887 3.34516277 -0.62355357 1.68327157 0 0 Z " fill="#FAFAFA" transform="translate(397,102)"/>
<path d="M0 0 C0.66 0 1.32 0 2 0 C3.0085755 1.61553261 3.95533576 3.26975067 4.875 4.9375 C11.0981628 15.02735601 20.94460013 21.33253679 32.3125 24.125 C37.17004893 25.13001012 42.05975854 25.60808105 47 26 C47.33 24.68 47.66 23.36 48 22 C47.5401966 29.35685436 44.55830783 34.08637164 39.75 39.5625 C35.58460033 41.73986801 32.43942213 41.32268044 28 40 C14.79731825 33.95297019 7.36215191 23.2946785 1.828125 10.234375 C0.52786684 6.5298659 0 3.99463888 0 0 Z " fill="#CFC4D9" transform="translate(66,414)"/>
<path d="M0 0 C0.99 0 1.98 0 3 0 C4.13206891 10.64983344 0.62851963 18.63833191 -5.875 27 C-11.50433388 33.04087787 -19.74614507 35.62363012 -27.796875 36.3359375 C-39.63815404 36.45294619 -48.53947309 34.56842152 -58 27 C-57.67 24.69 -57.34 22.38 -57 20 C-56.67 20.66 -56.34 21.32 -56 22 C-54.69357673 22.71796968 -53.3548482 23.37822145 -52 24 C-51.34 24.34160156 -50.68 24.68320312 -50 25.03515625 C-49.34 25.37417969 -48.68 25.71320313 -48 26.0625 C-47.34 26.40410156 -46.68 26.74570312 -46 27.09765625 C-40.07266124 29.77190479 -33.85620642 29.51931026 -27.5625 28.375 C-15.231814 23.61578786 -6.8799844 15.77970028 -1 4 C-0.33329112 1.81339349 -0.33329112 1.81339349 0 0 Z " fill="#CEC4D9" transform="translate(405,390)"/>
<path d="M0 0 C1.91015625 0.91796875 1.91015625 0.91796875 4 3 C4.85448491 6.05397779 5.11130238 9.1642867 5.4375 12.3125 C7.44144453 27.96235253 12.62309238 41.56024553 22.9375 53.75 C25.33531873 56.70157508 26.46610377 58.60230726 26.5625 62.4375 C26 66 26 66 24 68 C8.00856434 55.07075415 2.09055981 30.4781578 -1 11 C-1.29323777 7.53001975 -1.27630804 4.4814813 -1 1 C-0.67 0.67 -0.34 0.34 0 0 Z " fill="#F6F5F6" transform="translate(150,72)"/>
<path d="M0 0 C1.98 0 3.96 0 6 0 C6.33 9.57 6.66 19.14 7 29 C5.02 29 3.04 29 1 29 C-3.21442528 19.16634101 -2.39060323 10.22409776 0 0 Z " fill="#EDECEC" transform="translate(258,185)"/>
<path d="M0 0 C7.92 0.33 15.84 0.66 24 1 C24 2.65 24 4.3 24 6 C20.37 6 16.74 6 13 6 C13.144375 6.88042969 13.28875 7.76085937 13.4375 8.66796875 C13.623125 9.82941406 13.80875 10.99085938 14 12.1875 C14.185625 13.33605469 14.37125 14.48460937 14.5625 15.66796875 C14.93489477 18.50415393 15.08596021 21.14719564 15 24 C13.109375 23.71484375 13.109375 23.71484375 11 23 C7.91532999 16.94082676 7.62845958 11.71524908 8 5 C5.69 5 3.38 5 1 5 C0.67 3.35 0.34 1.7 0 0 Z " fill="#F1F1F1" transform="translate(211,216)"/>
<path d="M0 0 C1.32 1.65 2.64 3.3 4 5 C3.67 5.33 3.34 5.66 3 6 C1.46510557 25.33966977 9.65173186 48.81771499 20 65 C22.05890649 67.40614966 24.11072026 69.4853553 26.53125 71.51953125 C28 73 28 73 28 76 C18.28005729 72.1689415 12.72898669 58.35615004 8.7890625 49.375 C2.016853 33.20213065 -0.40326139 17.45225681 0 0 Z " fill="#494444" transform="translate(147,67)"/>
<path d="M0 0 C1.32 0.33 2.64 0.66 4 1 C4.02505615 1.56920166 4.0501123 2.13840332 4.07592773 2.72485352 C4.19293894 5.33757313 4.3151828 7.95002362 4.4375 10.5625 C4.47681641 11.45775391 4.51613281 12.35300781 4.55664062 13.27539062 C4.79332783 18.2458219 5.19821672 23.08823519 6 28 C4.35 28 2.7 28 1 28 C-2.33343186 20.08309934 -2.76218025 12.5027641 -2 4 C-0.98046875 1.55078125 -0.98046875 1.55078125 0 0 Z " fill="#F4F4F4" transform="translate(198,182)"/>
<path d="M0 0 C1.66666667 1.66666667 3.33333333 3.33333333 5 5 C5.928125 5.886875 6.85625 6.77375 7.8125 7.6875 C10 10 10 10 10 12 C4.48467967 12.36768802 4.48467967 12.36768802 2.1875 10.625 C-0.38866924 7.09971578 -0.07959962 4.29837938 0 0 Z " fill="#C3B8CC" transform="translate(143,363)"/>
<path d="M0 0 C1.32 1.65 2.64 3.3 4 5 C3.67 5.33 3.34 5.66 3 6 C2.5406746 12.68723737 3.20929963 19.36376475 4 26 C-0.71208369 20.6732967 -0.14145046 14.34186218 -0.0625 7.625 C-0.05798828 6.88894531 -0.05347656 6.15289062 -0.04882812 5.39453125 C-0.03715142 3.59631842 -0.01922011 1.79814803 0 0 Z " fill="#4B4545" transform="translate(147,67)"/>
<path d="M0 0 C0.99 0 1.98 0 3 0 C3 2.97 3 5.94 3 9 C1.02 9 -0.96 9 -3 9 C-3 7.02 -3 5.04 -3 3 C-2.01 3 -1.02 3 0 3 C0 2.01 0 1.02 0 0 Z " fill="#000000" transform="translate(114,205)"/>
<path d="M0 0 C0.33 0 0.66 0 1 0 C1.22588024 8.59599799 0.91958262 16.60182604 -1 25 C-3.0103993 22.7905734 -4.0074318 21.66518025 -3.97338867 18.61816406 C-3.7901001 17.75932617 -3.60681152 16.90048828 -3.41796875 16.015625 C-3.22783203 15.08105469 -3.03769531 14.14648438 -2.84179688 13.18359375 C-2.62587891 12.21550781 -2.40996094 11.24742187 -2.1875 10.25 C-1.98318359 9.26644531 -1.77886719 8.28289062 -1.56835938 7.26953125 C-1.0617334 4.84243936 -0.53848832 2.42018646 0 0 Z " fill="#141112" transform="translate(363,174)"/>
<path d="M0 0 C2.2477975 2.05233685 3.0022242 3.00667261 4 6 C4.06740865 7.56118428 4.08514456 9.1250252 4.0625 10.6875 C4.05347656 11.49574219 4.04445313 12.30398438 4.03515625 13.13671875 C4.02355469 13.75160156 4.01195312 14.36648438 4 15 C3.67 15 3.34 15 3 15 C3 13.02 3 11.04 3 9 C0.03 9 -2.94 9 -6 9 C-6 8.67 -6 8.34 -6 8 C-4.02 8 -2.04 8 0 8 C0 5.36 0 2.72 0 0 Z " fill="#4C4449" transform="translate(405,381)"/>
<path d="M0 0 C0.33 0 0.66 0 1 0 C0.67 2.31 0.34 4.62 0 7 C-0.66 7 -1.32 7 -2 7 C-2.20625 7.70125 -2.4125 8.4025 -2.625 9.125 C-4.45781577 12.95725116 -6.90251519 15.10452507 -10 18 C-10.66 17.67 -11.32 17.34 -12 17 C-11.55269531 16.52691406 -11.10539062 16.05382812 -10.64453125 15.56640625 C-6.22545994 10.73275256 -2.93720153 5.84733207 0 0 Z " fill="#4F4D4D" transform="translate(390,133)"/>
<path d="M0 0 C3.13010458 1.39192704 5.32336692 3.02642226 7.75 5.4375 C8.67039063 6.33275391 8.67039063 6.33275391 9.609375 7.24609375 C11 9 11 9 11 12 C7.3571729 10.52513858 5.59170887 8.55477485 3.25 5.4375 C2.63640625 4.63183594 2.0228125 3.82617188 1.390625 2.99609375 C0 1 0 1 0 0 Z " fill="#413F3E" transform="translate(164,131)"/>
<path d="M0 0 C2.26998857 3.40498285 3.92252127 6.98149446 5.625 10.6875 C5.94984375 11.38939453 6.2746875 12.09128906 6.609375 12.81445312 C7.40848336 14.54193738 8.20454043 16.27083254 9 18 C4.2235525 16.16290481 3.07322439 12.987079 0.97265625 8.5546875 C-0.16203962 5.57440196 -0.41614369 3.16269206 0 0 Z " fill="#534F4E" transform="translate(157,113)"/>
<path d="M0 0 C0.66 0 1.32 0 2 0 C2.69640673 2.12209776 3.38188357 4.24778527 4.0625 6.375 C4.44535156 7.55835937 4.82820313 8.74171875 5.22265625 9.9609375 C6 13 6 13 5 15 C1.10640794 10.10160999 0.2757735 6.2049038 0 0 Z " fill="#110F0F" transform="translate(305,88)"/>
<path d="M0 0 C2.64 0.66 5.28 1.32 8 2 C3.25 6 3.25 6 1 6 C0.67 4.02 0.34 2.04 0 0 Z " fill="#2F282B" transform="translate(213,390)"/>
<path d="M0 0 C0.33 0.66 0.66 1.32 1 2 C-0.24420647 2.5345256 -1.49570936 3.05208611 -2.75 3.5625 C-3.44609375 3.85253906 -4.1421875 4.14257812 -4.859375 4.44140625 C-7.30012784 5.07831803 -8.6403655 4.80248831 -11 4 C-10.67 3.34 -10.34 2.68 -10 2 C-7.71484375 1.3671875 -7.71484375 1.3671875 -4.9375 0.875 C-4.01839844 0.70742187 -3.09929687 0.53984375 -2.15234375 0.3671875 C-1.44207031 0.24601562 -0.73179687 0.12484375 0 0 Z " fill="#242223" transform="translate(402,83)"/>
<path d="M0 0 C1.32 1.65 2.64 3.3 4 5 C3.01 5 2.02 5 1 5 C1 8.63 1 12.26 1 16 C0.67 16 0.34 16 0 16 C0 10.72 0 5.44 0 0 Z " fill="#2E2929" transform="translate(147,67)"/>
<path d="M0 0 C0.66 0.33 1.32 0.66 2 1 C-0.31 3.97 -2.62 6.94 -5 10 C-5 6.26879511 -3.81968524 4.21944311 -2 1 C-1.34 0.67 -0.68 0.34 0 0 Z " fill="#262023" transform="translate(354,223)"/>
<path d="M0 0 C0.99 0 1.98 0 3 0 C3 1.98 3 3.96 3 6 C2.01 6 1.02 6 0 6 C0 4.02 0 2.04 0 0 Z " fill="#000000" transform="translate(193,262)"/>
</svg>
